<svg width="24" height="24" viewBox="0 0 24 24" fill="none" xmlns="http://www.w3.org/2000/svg">
<path d="M19.4977 7.98878L12.0007 15.2968L4.50372 7.98878C4.36978 7.85795 4.18997 7.7847 4.00272 7.7847C3.81548 7.7847 3.63567 7.85795 3.50172 7.98878C3.43687 8.05233 3.38534 8.12818 3.35017 8.21189C3.31499 8.2956 3.29687 8.38548 3.29688 8.47628C3.29687 8.56708 3.31499 8.65697 3.35017 8.74068C3.38534 8.82439 3.43687 8.90024 3.50172 8.96378L11.4772 16.7398C11.6173 16.8763 11.8051 16.9527 12.0007 16.9527C12.1963 16.9527 12.3842 16.8763 12.5242 16.7398L20.4997 8.96528C20.565 8.90169 20.617 8.82565 20.6524 8.74167C20.6878 8.65768 20.7061 8.56744 20.7061 8.47628C20.7061 8.38512 20.6878 8.29488 20.6524 8.2109C20.617 8.12691 20.565 8.05088 20.4997 7.98728C20.3658 7.85645 20.186 7.7832 19.9987 7.7832C19.8115 7.7832 19.6317 7.85645 19.4977 7.98728V7.98878Z" fill="#FF8533"/>
</svg>
