<svg width="20" height="20" viewBox="0 0 20 20" fill="none" xmlns="http://www.w3.org/2000/svg">
<path d="M12 3.00742C12.033 2.88675 12.1121 2.7839 12.2203 2.72105C12.3284 2.6582 12.457 2.64039 12.5781 2.67148C13.7167 2.97751 14.7548 3.57742 15.5885 4.41109C16.4222 5.24476 17.0221 6.28291 17.3281 7.42148C17.3446 7.48151 17.3489 7.54421 17.3409 7.60593C17.3329 7.66765 17.3126 7.72716 17.2814 7.78097C17.2501 7.83479 17.2084 7.88184 17.1588 7.91938C17.1091 7.95691 17.0525 7.98419 16.9922 7.99961L16.875 8.01523C16.7712 8.01507 16.6704 7.98046 16.5884 7.91683C16.5064 7.85321 16.4478 7.76417 16.4219 7.66367C16.1569 6.68511 15.6403 5.79301 14.9235 5.07615C14.2066 4.35929 13.3145 3.84268 12.3359 3.57773C12.217 3.5447 12.1155 3.46679 12.0528 3.36041C11.9901 3.25403 11.9712 3.12748 12 3.00742ZM11.6875 5.99179C12.2425 6.14372 12.7483 6.43759 13.1552 6.84445C13.562 7.25131 13.8559 7.75714 14.0078 8.31211C14.0338 8.4126 14.0923 8.50165 14.1743 8.56527C14.2563 8.6289 14.3571 8.66351 14.4609 8.66367L14.5781 8.64804C14.6977 8.61332 14.7993 8.53389 14.8618 8.42624C14.9244 8.31859 14.9431 8.19099 14.9141 8.06992C14.721 7.35494 14.3439 6.70308 13.8202 6.17941C13.2965 5.65574 12.6447 5.27857 11.9297 5.08554C11.8086 5.05651 11.681 5.07521 11.5734 5.13776C11.4657 5.20031 11.3863 5.30192 11.3516 5.42148C11.3207 5.54165 11.3387 5.66916 11.4017 5.77606C11.4646 5.88297 11.5674 5.96055 11.6875 5.99179ZM17.9375 13.6559C17.8065 14.6743 17.3093 15.6102 16.5387 16.2888C15.7681 16.9674 14.7768 17.3423 13.75 17.3434C7.63281 17.3434 2.65625 12.3668 2.65625 6.24961C2.65735 5.2228 3.03222 4.23151 3.71081 3.4609C4.38941 2.69029 5.32533 2.19307 6.34375 2.06211C6.57809 2.03467 6.81503 2.08376 7.01919 2.20203C7.22334 2.3203 7.38379 2.50142 7.47656 2.71836L9.04688 6.38242C9.11811 6.5482 9.14752 6.72895 9.13254 6.90876C9.11755 7.08858 9.05863 7.26196 8.96094 7.41367L7.65625 9.39804C7.64335 9.42042 7.63593 9.44553 7.63457 9.47133C7.63321 9.49712 7.63796 9.52287 7.64844 9.54648C8.24854 10.7769 9.2445 11.7701 10.4766 12.3668C10.5005 12.3775 10.5268 12.3817 10.5529 12.379C10.579 12.3763 10.6038 12.3667 10.625 12.3512L12.5859 11.0465C12.7361 10.9456 12.9093 10.8841 13.0896 10.8677C13.2698 10.8513 13.4512 10.8806 13.6172 10.9527L17.2812 12.523C17.4982 12.6158 17.6793 12.7763 17.7976 12.9804C17.9159 13.1846 17.9649 13.4215 17.9375 13.6559ZM17.0078 13.5387C17.0105 13.5061 17.0029 13.4735 16.9861 13.4455C16.9693 13.4174 16.9441 13.3954 16.9141 13.3824L13.25 11.8121C13.2258 11.8028 13.1997 11.7993 13.1739 11.8021C13.1481 11.8048 13.1233 11.8136 13.1016 11.8277L11.1484 13.1324C10.9903 13.2363 10.8082 13.298 10.6195 13.3117C10.4308 13.3253 10.2418 13.2905 10.0703 13.2105C8.64924 12.5187 7.4999 11.3721 6.80469 9.95273C6.7235 9.78331 6.68732 9.59583 6.69963 9.40836C6.71195 9.2209 6.77234 9.03976 6.875 8.88242L8.17188 6.89804C8.18736 6.87689 8.19696 6.85201 8.1997 6.82593C8.20245 6.79986 8.19824 6.77352 8.1875 6.74961L6.61719 3.08554C6.60521 3.05808 6.58558 3.03464 6.56064 3.01802C6.53571 3.00139 6.50652 2.99229 6.47656 2.99179H6.46094C5.66966 3.09581 4.94298 3.48331 4.41572 4.08241C3.88845 4.68151 3.5964 5.45153 3.59375 6.24961C3.59582 8.94258 4.66651 11.5247 6.57073 13.4289C8.47495 15.3331 11.057 16.4038 13.75 16.4059C14.5481 16.4032 15.3181 16.1112 15.9172 15.5839C16.5163 15.0566 16.9038 14.3299 17.0078 13.5387Z" fill="#FF6600"/>
</svg>
