<svg width="12" height="12" viewBox="0 0 12 12" fill="none" xmlns="http://www.w3.org/2000/svg">
<path d="M5.60736 10.1716L10.0898 6.28215C10.1303 6.24699 10.1629 6.20353 10.1852 6.1547C10.2075 6.10587 10.219 6.05282 10.219 5.99914C10.219 5.94547 10.2075 5.89242 10.1852 5.84359C10.1629 5.79476 10.1303 5.75129 10.0898 5.71614L5.60736 1.82785C5.59385 1.8161 5.57724 1.80849 5.55953 1.80591C5.54181 1.80333 5.52372 1.80589 5.50742 1.8133C5.49112 1.82071 5.47729 1.83265 5.46759 1.8477C5.45788 1.86274 5.4527 1.88026 5.45267 1.89817L5.45267 2.84739C5.45267 2.90129 5.47611 2.95285 5.51712 2.98918L8.47376 5.55442L1.87494 5.55442C1.82337 5.55442 1.78119 5.5966 1.78119 5.64817L1.78119 6.35129C1.78119 6.40285 1.82337 6.44504 1.87494 6.44504L8.47376 6.44504L5.51712 9.01028C5.47611 9.04543 5.45267 9.097 5.45267 9.15207L5.45267 10.1013C5.45267 10.181 5.54642 10.2243 5.60736 10.1716Z" fill="#252525"/>
</svg>
