<svg width="20" height="20" viewBox="0 0 20 20" fill="none" xmlns="http://www.w3.org/2000/svg">
<g clip-path="url(#clip0_950_10883)">
<path d="M17.4286 18H2.57143C2.41988 18 2.27453 18.0527 2.16737 18.1464C2.0602 18.2402 2 18.3674 2 18.5C2 18.6326 2.0602 18.7598 2.16737 18.8536C2.27453 18.9473 2.41988 19 2.57143 19H17.4286C17.5801 19 17.7255 18.9473 17.8326 18.8536C17.9398 18.7598 18 18.6326 18 18.5C18 18.3674 17.9398 18.2402 17.8326 18.1464C17.7255 18.0527 17.5801 18 17.4286 18Z" fill="#FF6600"/>
<path d="M9.9991 15.3777L15.8935 9.48328C15.9846 9.377 16.0321 9.24029 16.0267 9.10047C16.0213 8.96065 15.9634 8.82802 15.8644 8.72908C15.7655 8.63014 15.6328 8.57217 15.493 8.56677C15.3532 8.56137 15.2165 8.60893 15.1102 8.69994L10.5547 13.2499V1.77772C10.5547 1.63038 10.4961 1.48907 10.3919 1.38489C10.2877 1.2807 10.1464 1.22217 9.9991 1.22217C9.85175 1.22217 9.71045 1.2807 9.60626 1.38489C9.50207 1.48907 9.44354 1.63038 9.44354 1.77772V13.2499L4.89354 8.69994C4.84374 8.64179 4.78245 8.59455 4.71352 8.56121C4.6446 8.52786 4.56952 8.50912 4.49301 8.50617C4.4165 8.50321 4.34021 8.51611 4.26892 8.54404C4.19762 8.57197 4.13288 8.61433 4.07873 8.66847C4.02459 8.72261 3.98223 8.78736 3.9543 8.85866C3.92637 8.92995 3.91347 9.00624 3.91643 9.08275C3.91938 9.15926 3.93812 9.23434 3.97147 9.30326C4.00482 9.37219 4.05205 9.43348 4.11021 9.48328L9.9991 15.3777Z" fill="#FF6600"/>
</g>
<defs>
<clipPath id="clip0_950_10883">
<rect width="20" height="20" fill="white"/>
</clipPath>
</defs>
</svg>
