<svg width="20" height="20" viewBox="0 0 20 20" fill="none" xmlns="http://www.w3.org/2000/svg">
<path d="M9.9999 18.125C8.6343 18.1266 7.29052 17.7825 6.09365 17.125L3.7499 17.7891C3.53633 17.851 3.31004 17.8545 3.09467 17.7992C2.8793 17.7438 2.68273 17.6317 2.52549 17.4744C2.36825 17.3172 2.2561 17.1206 2.20075 16.9052C2.1454 16.6899 2.14888 16.4636 2.21083 16.25L2.8749 13.9063C2.0187 12.3447 1.69927 10.5451 1.96576 8.78423C2.23224 7.02339 3.06987 5.39887 4.34979 4.16058C5.62972 2.92229 7.28103 2.13882 9.04972 1.93069C10.8184 1.72256 12.6065 2.1013 14.1389 3.00865C15.6713 3.916 16.8632 5.30169 17.5311 6.95257C18.1991 8.60345 18.3061 10.4281 17.8358 12.1457C17.3655 13.8634 16.3439 15.379 14.9281 16.4593C13.5123 17.5396 11.7808 18.1249 9.9999 18.125ZM6.17177 15.8281C6.284 15.8299 6.39405 15.8594 6.49208 15.9141C7.93265 16.7684 9.63555 17.0675 11.281 16.7552C12.9265 16.4429 14.4014 15.5407 15.4288 14.2179C16.4561 12.8952 16.9653 11.2429 16.8607 9.57127C16.756 7.89967 16.0448 6.32377 14.8604 5.13946C13.6761 3.95515 12.1002 3.2439 10.4286 3.13925C8.75705 3.03461 7.10474 3.54376 5.78198 4.57112C4.45921 5.59848 3.55697 7.07337 3.24466 8.71886C2.93236 10.3644 3.23147 12.0673 4.08583 13.5078C4.12845 13.5816 4.15593 13.6631 4.16666 13.7476C4.1774 13.8321 4.17116 13.9179 4.14833 14L3.40615 16.5938L5.9999 15.8516C6.05588 15.8361 6.11369 15.8282 6.17177 15.8281Z" fill="#FF6600"/>
</svg>
