<svg width="16" height="16" viewBox="0 0 16 16" fill="none" xmlns="http://www.w3.org/2000/svg">
<path d="M12.998 5.32602L8.00002 10.198L3.00202 5.32602C2.91272 5.2388 2.79284 5.18996 2.66802 5.18996C2.54319 5.18996 2.42331 5.2388 2.33402 5.32602C2.29078 5.36838 2.25643 5.41895 2.23298 5.47475C2.20953 5.53056 2.19745 5.59048 2.19745 5.65102C2.19745 5.71155 2.20953 5.77147 2.23298 5.82728C2.25643 5.88309 2.29078 5.93365 2.33402 5.97602L7.65102 11.16C7.74439 11.251 7.86962 11.302 8.00002 11.302C8.13041 11.302 8.25564 11.251 8.34902 11.16L13.666 5.97702C13.7096 5.93462 13.7442 5.88393 13.7678 5.82794C13.7914 5.77195 13.8036 5.71179 13.8036 5.65102C13.8036 5.59024 13.7914 5.53009 13.7678 5.47409C13.7442 5.4181 13.7096 5.36741 13.666 5.32502C13.5767 5.2378 13.4568 5.18896 13.332 5.18896C13.2072 5.18896 13.0873 5.2378 12.998 5.32502V5.32602Z" fill="#848484"/>
</svg>
