<svg width="16" height="16" viewBox="0 0 16 16" fill="none" xmlns="http://www.w3.org/2000/svg">
<path fill-rule="evenodd" clip-rule="evenodd" d="M1 8C1 4.13391 4.13391 1 8 1C11.8661 1 15 4.13391 15 8C15 11.8661 11.8661 15 8 15C4.13391 15 1 11.8661 1 8ZM8 1.66667C4.5021 1.66667 1.66667 4.5021 1.66667 8C1.66667 11.4979 4.5021 14.3333 8 14.3333C11.4979 14.3333 14.3333 11.4979 14.3333 8C14.3333 4.5021 11.4979 1.66667 8 1.66667Z" fill="white"/>
<path fill-rule="evenodd" clip-rule="evenodd" d="M6.34977 4.34943C6.78735 3.91185 7.38085 3.66602 7.99969 3.66602C8.61853 3.66602 9.21202 3.91185 9.6496 4.34943C10.0872 4.78702 10.333 5.38051 10.333 5.99935C10.333 6.61819 10.0872 7.21168 9.6496 7.64927C9.21202 8.08685 8.61853 8.33268 7.99969 8.33268C7.38085 8.33268 6.78735 8.08685 6.34977 7.64927C5.91219 7.21168 5.66635 6.61819 5.66635 5.99935C5.66635 5.38051 5.91219 4.78702 6.34977 4.34943ZM7.99969 7.66602C8.44171 7.66602 8.86564 7.49042 9.1782 7.17786C9.49076 6.8653 9.66635 6.44138 9.66635 5.99935C9.66635 5.55732 9.49076 5.1334 9.1782 4.82084C8.86564 4.50828 8.44171 4.33268 7.99969 4.33268C7.55766 4.33268 7.13374 4.50828 6.82117 4.82084C6.50861 5.1334 6.33302 5.55732 6.33302 5.99935C6.33302 6.44138 6.50861 6.8653 6.82117 7.17786C7.13374 7.49042 7.55766 7.66602 7.99969 7.66602ZM3.10945 12.4355L3.11888 12.4242C3.12779 12.4137 3.1425 12.3968 3.16319 12.3743C3.20457 12.3294 3.26979 12.2625 3.36013 12.1807C3.54083 12.0173 3.82185 11.7948 4.21377 11.5707C4.99547 11.1239 6.2269 10.666 7.99969 10.666C9.77247 10.666 11.0041 11.1239 11.786 11.5708C12.178 11.7948 12.4591 12.0173 12.6398 12.1808C12.7302 12.2625 12.7955 12.3295 12.8369 12.3744C12.8576 12.3968 12.8723 12.4138 12.8812 12.4243L12.8902 12.4351L12.8911 12.4361C12.8909 12.4359 12.8912 12.4364 12.8911 12.4361C13.0048 12.5801 13.214 12.6057 13.3586 12.4924C13.5035 12.3789 13.5289 12.1693 13.4154 12.0244L13.153 12.23C13.4154 12.0244 13.4155 12.0246 13.4154 12.0244L13.4148 12.0237L13.4142 12.0229L13.4124 12.0206L13.4071 12.014C13.4049 12.0114 13.4023 12.0082 13.3994 12.0047C13.3965 12.0012 13.3933 11.9974 13.3897 11.9931C13.375 11.9758 13.3542 11.952 13.3271 11.9226C13.2729 11.8638 13.1933 11.7825 13.087 11.6863C12.8745 11.4941 12.5547 11.2422 12.1167 10.9919C11.2386 10.4901 9.89357 9.99935 7.99969 9.99935C6.1058 9.99935 4.7609 10.4901 3.88294 10.992C3.44502 11.2423 3.12538 11.4941 2.91286 11.6864C2.80661 11.7825 2.72708 11.8638 2.67287 11.9226C2.64577 11.9521 2.62498 11.9759 2.61033 11.9932C2.603 12.0018 2.59721 12.0088 2.59293 12.0141L2.58764 12.0206L2.58583 12.0229L2.58514 12.0238C2.58501 12.024 2.58459 12.0245 2.84702 12.23L2.58459 12.0245C2.47108 12.1694 2.49655 12.3789 2.64149 12.4924C2.78633 12.6059 2.99588 12.5802 3.10945 12.4355Z" fill="white"/>
</svg>
