<svg width="80" height="80" viewBox="0 0 80 80" fill="none" xmlns="http://www.w3.org/2000/svg">
<path d="M37.3825 67.8105L67.2653 41.8808C67.5357 41.6465 67.7525 41.3567 67.9012 41.0312C68.0498 40.7056 68.1267 40.352 68.1267 39.9941C68.1267 39.6363 68.0498 39.2826 67.9012 38.9571C67.7525 38.6316 67.5357 38.3418 67.2653 38.1074L37.3825 12.1855C37.2924 12.1072 37.1817 12.0564 37.0636 12.0392C36.9455 12.022 36.8249 12.0391 36.7162 12.0885C36.6075 12.1379 36.5154 12.2175 36.4507 12.3178C36.3859 12.4181 36.3514 12.5349 36.3512 12.6543L36.3512 18.9824C36.3512 19.3418 36.5075 19.6855 36.7809 19.9277L56.4918 37.0293L12.4997 37.0293C12.1559 37.0293 11.8747 37.3105 11.8747 37.6543L11.8747 42.3418C11.8747 42.6855 12.1559 42.9668 12.4997 42.9668L56.4918 42.9668L36.7809 60.0684C36.5075 60.3027 36.3512 60.6465 36.3512 61.0137L36.3512 67.3418C36.3512 67.873 36.9762 68.1621 37.3825 67.8105Z" fill="#FF6600"/>
</svg>
