<svg width="24" height="24" viewBox="0 0 24 24" fill="none" xmlns="http://www.w3.org/2000/svg">
<path d="M11.2147 20.3437L20.1796 12.5648C20.2607 12.4945 20.3257 12.4075 20.3703 12.3099C20.4149 12.2122 20.438 12.1061 20.438 11.9988C20.438 11.8914 20.4149 11.7853 20.3703 11.6877C20.3257 11.59 20.2607 11.5031 20.1796 11.4328L11.2147 3.6562C11.1877 3.6327 11.1545 3.61746 11.1191 3.6123C11.0836 3.60714 11.0474 3.61228 11.0148 3.62709C10.9822 3.64191 10.9546 3.66579 10.9352 3.69588C10.9158 3.72597 10.9054 3.76101 10.9053 3.79682L10.9053 5.69526C10.9053 5.80307 10.9522 5.9062 11.0342 5.97885L16.9475 11.1093L3.74987 11.1093C3.64675 11.1093 3.56237 11.1937 3.56237 11.2968L3.56237 12.7031C3.56237 12.8062 3.64675 12.8906 3.74987 12.8906L16.9475 12.8906L11.0342 18.021C10.9522 18.0914 10.9053 18.1945 10.9053 18.3046L10.9053 20.2031C10.9053 20.3624 11.0928 20.4492 11.2147 20.3437Z" fill="white"/>
</svg>
