<svg width="32" height="32" viewBox="0 0 32 32" fill="none" xmlns="http://www.w3.org/2000/svg">
<path d="M22.052 12.2479C21.4322 12.022 20.777 11.9087 20.1173 11.9132C17.984 11.9132 16.4773 12.9879 16.4667 14.5305C16.4533 15.6639 17.5373 16.3025 18.3573 16.6812C19.1987 17.0705 19.48 17.3159 19.4773 17.6639C19.472 18.1932 18.8053 18.4332 18.1853 18.4332C17.3333 18.4332 16.868 18.3145 16.152 18.0172L15.8867 17.8932L15.584 19.6692C16.1027 19.8852 17.0373 20.0705 18.0027 20.0865C20.2707 20.0865 21.7533 19.0185 21.7707 17.3772C21.7893 16.4719 21.2027 15.7879 19.968 15.2225C19.2173 14.8559 18.752 14.6105 18.752 14.2385C18.752 13.9092 19.1507 13.5572 19.984 13.5572C20.5386 13.5438 21.0898 13.6479 21.6013 13.8625L21.8013 13.9519L22.104 12.2359L22.052 12.2479ZM27.588 12.0572H25.9213C25.4027 12.0572 25.012 12.1999 24.7853 12.7145L21.58 19.9759H23.848L24.3013 18.7852L27.0693 18.7879C27.1347 19.0665 27.3347 19.9759 27.3347 19.9759H29.3347L27.588 12.0572ZM13.3987 11.9905H15.56L14.208 19.9132H12.0493L13.3987 11.9879V11.9905ZM7.912 16.3572L8.136 17.4572L10.248 12.0572H12.5373L9.136 19.9652H6.852L4.98533 13.2692C4.9551 13.1588 4.8841 13.064 4.78667 13.0039C4.11387 12.6563 3.401 12.3926 2.664 12.2185L2.69333 12.0519H6.172C6.644 12.0705 7.024 12.2185 7.15067 12.7225L7.91067 16.3612V16.3572H7.912ZM24.9213 17.1652L25.7827 14.9492C25.772 14.9732 25.96 14.4919 26.0693 14.1945L26.2173 14.8785L26.7173 17.1639H24.92V17.1652H24.9213Z" fill="#8099F7"/>
</svg>
