<svg width="16" height="16" viewBox="0 0 16 16" fill="none" xmlns="http://www.w3.org/2000/svg">
<path d="M5.84533 1.46095C6.53233 1.36695 7.10966 1.78728 7.38299 2.33362L8.05533 3.67795C8.42833 4.42395 8.21399 5.29928 7.64866 5.84995C7.31466 6.17495 6.97899 6.54629 6.78433 6.87395C6.77143 6.89731 6.76741 6.92453 6.77299 6.95062C6.95299 7.92595 7.61399 8.88962 8.20366 9.58062C8.23332 9.61356 8.27202 9.63704 8.31494 9.64813C8.35786 9.65921 8.40309 9.65741 8.44499 9.64295L9.76999 9.22895C10.1269 9.11739 10.5102 9.1231 10.8636 9.24523C11.2171 9.36736 11.5221 9.5995 11.734 9.90762L12.693 11.3023C12.953 11.681 13.0847 12.1943 12.8853 12.688C12.7073 13.129 12.363 13.765 11.7367 14.188C11.0867 14.6266 10.1963 14.7933 9.03133 14.394C7.72966 13.9473 6.49999 12.8273 5.48033 11.395C4.45466 9.95362 3.61033 8.15328 3.09833 6.27595C2.61466 4.50328 2.90666 3.30995 3.59399 2.54162C4.25699 1.80028 5.20699 1.54862 5.84533 1.46095ZM6.63766 2.70628C6.48533 2.40195 6.21366 2.25162 5.95866 2.28662C5.39166 2.36462 4.68166 2.57562 4.21533 3.09728C3.77333 3.59162 3.46733 4.46228 3.90199 6.05662C4.39033 7.84595 5.19433 9.55595 6.15933 10.9116C7.13033 12.276 8.23366 13.2393 9.30166 13.6056C10.2533 13.932 10.865 13.7706 11.2703 13.4973C11.699 13.2076 11.9627 12.7473 12.1127 12.376C12.1813 12.206 12.1517 11.986 12.0063 11.7746L11.0473 10.38C10.9364 10.2185 10.7766 10.0969 10.5915 10.0329C10.4064 9.96892 10.2056 9.96589 10.0187 10.0243L8.69366 10.4383C8.29766 10.562 7.85166 10.4516 7.56999 10.1216C6.95633 9.40262 6.17433 8.29995 5.95333 7.10162C5.91108 6.87703 5.95183 6.64475 6.06799 6.44795C6.32066 6.02328 6.72066 5.59028 7.06699 5.25295C7.40533 4.92362 7.50133 4.43362 7.30999 4.05062L6.63766 2.70662V2.70628Z" fill="#FF6600"/>
</svg>
