<svg width="24" height="24" viewBox="0 0 24 24" fill="none" xmlns="http://www.w3.org/2000/svg">
<path d="M12.7853 3.6563L3.82044 11.4352C3.73932 11.5055 3.67426 11.5925 3.62967 11.6901C3.58509 11.7878 3.56201 11.8939 3.56201 12.0012C3.56201 12.1086 3.58509 12.2147 3.62967 12.3123C3.67426 12.41 3.73932 12.4969 3.82044 12.5672L12.7853 20.3438C12.8123 20.3673 12.8455 20.3825 12.8809 20.3877C12.9164 20.3929 12.9526 20.3877 12.9852 20.3729C13.0178 20.3581 13.0454 20.3342 13.0648 20.3041C13.0842 20.274 13.0946 20.239 13.0947 20.2032L13.0947 18.3047C13.0947 18.1969 13.0478 18.0938 12.9658 18.0211L7.05247 12.8907L20.2501 12.8907C20.3533 12.8907 20.4376 12.8063 20.4376 12.7032L20.4376 11.2969C20.4376 11.1938 20.3533 11.1094 20.2501 11.1094L7.05247 11.1094L12.9658 5.97896C13.0478 5.90865 13.0947 5.80552 13.0947 5.69537L13.0947 3.79693C13.0947 3.63755 12.9072 3.55083 12.7853 3.6563Z" fill="#848484"/>
</svg>
