<svg width="103" height="10" viewBox="0 0 103 10" fill="none" xmlns="http://www.w3.org/2000/svg">
<path d="M0 0.074737H2.99361V9.92568H0V0.074737Z" fill="#848484"/>
<path d="M5.55974 0.0742081H10.3241L16.2796 7.56214L16.2054 0.0742081H19.0376V9.92515H14.2349L8.36145 2.51143L8.43556 9.92515H5.55974V0.0742081Z" fill="#848484"/>
<path d="M33.9024 6.21697C33.8879 7.64962 33.8429 8.13733 33.6378 8.57998C33.254 9.42287 32.4573 9.82178 30.9234 9.92515C30.3186 9.98347 29.1394 9.99805 27.1781 9.99805C24.3459 9.99805 23.4314 9.86552 22.6347 9.34865C21.662 8.72841 21.3814 7.69468 21.3814 4.76975C21.3814 2.17084 21.6765 1.24048 22.7049 0.649397C23.5902 0.132531 24.5338 0 27.2919 0C30.9644 0 31.7598 0.0742151 32.6015 0.487708C33.3956 0.885297 33.7661 1.75734 33.7661 3.20457V3.52927H30.9102C30.8506 2.4518 30.6296 2.363 28.0343 2.363C25.586 2.363 25.1439 2.42132 24.7747 2.74734C24.4055 3.07336 24.3472 3.47096 24.3472 5.06529C24.3472 7.42829 24.5683 7.60588 27.4441 7.60588C29.6714 7.60588 29.9957 7.5913 30.4086 7.41371C30.8215 7.23612 30.9988 6.92601 30.9988 6.22095L33.9024 6.21697Z" fill="#848484"/>
<path d="M36.2608 0.0742081H44.74C46.4803 0.0742081 47.2479 0.221316 47.8077 0.694447C48.3675 1.16758 48.6441 1.99324 48.6441 3.32251C48.6441 5.15407 48.2021 5.87769 46.9488 6.15865C48.173 6.3654 48.537 6.88226 48.5118 8.37322V9.92515H45.4679V8.69925C45.4533 7.63901 45.1582 7.41371 43.8163 7.44286H39.2398V9.92515H36.2608V0.0742081ZM43.9142 5.03612C45.3594 5.03612 45.6347 4.85853 45.6347 3.88444C45.6347 3.24962 45.5751 2.98324 45.3845 2.77649C45.1622 2.54059 44.9121 2.49553 44.0121 2.49553H39.2345V5.03612H43.9142Z" fill="#848484"/>
<path d="M61.9645 0.0742081V2.30336H54.0146V4.00239H61.5066V5.95191H54.0146V7.69467H62.0677V9.92515H51.0647V0.0742081H61.9645Z" fill="#848484"/>
<path d="M69.1574 0.0742081H73.1687L78.5538 9.92515H75.2796L74.3056 8.16647H67.9663L67.0227 9.92515H63.6281L69.1574 0.0742081ZM73.2601 6.11359L71.1426 2.18541L69.0409 6.11359H73.2601Z" fill="#848484"/>
<path d="M82.2237 2.51143H77.8431V0.0742081H89.5979V2.51143H85.2173V9.92515H82.2237V2.51143Z" fill="#848484"/>
<path d="M102.397 0.0742081V2.30336H94.4469V4.00239H101.94V5.95191H94.4469V7.69467H102.5V9.92515H91.4983V0.0742081H102.397Z" fill="#848484"/>
</svg>
