<svg width="192" height="58" viewBox="0 0 192 58" fill="none" xmlns="http://www.w3.org/2000/svg">
<path d="M97.5172 38.5438H98.7212V41.5365H99.124V38.5438H100.321V38.2173H97.5172V38.5438ZM96.32 39.9147C96.0905 39.839 95.8569 39.7755 95.6202 39.7244C95.405 39.6853 95.1982 39.6122 95.0081 39.5082C94.9433 39.468 94.8908 39.412 94.856 39.3458C94.8211 39.2796 94.8053 39.2059 94.8101 39.1319C94.8058 39.0444 94.824 38.957 94.8632 38.8777C94.9025 38.7985 94.9615 38.7297 95.0351 38.6779C95.2205 38.5559 95.4431 38.4966 95.6674 38.5092C95.8529 38.5077 96.0369 38.5399 96.2098 38.6043C96.3923 38.6735 96.5606 38.773 96.7071 38.8984L96.8624 38.6043C96.7143 38.4633 96.5352 38.3563 96.338 38.2908C96.1211 38.2175 95.8927 38.1809 95.6629 38.1827C95.4314 38.1766 95.2009 38.2188 94.9878 38.3059C94.8116 38.3771 94.6602 38.4947 94.5513 38.6454C94.4464 38.7922 94.3922 38.967 94.396 39.1449C94.3868 39.3196 94.4435 39.4915 94.5558 39.6293C94.6676 39.7562 94.8118 39.8531 94.9743 39.9104C95.1874 39.9871 95.4064 40.0479 95.6292 40.092C95.7883 40.1257 95.9451 40.1675 96.0995 40.2174C96.2077 40.2518 96.3063 40.3095 96.3875 40.3861C96.4245 40.4213 96.4535 40.4635 96.4724 40.51C96.4913 40.5567 96.5001 40.6064 96.4978 40.6564C96.4996 40.7405 96.48 40.824 96.4409 40.8994C96.4017 40.9747 96.3439 41.0398 96.2728 41.0889C96.0813 41.2039 95.8569 41.2584 95.6314 41.2445C95.4208 41.248 95.2108 41.2179 95.0103 41.1559C94.8175 41.088 94.6397 40.9861 94.486 40.8553L94.3352 41.1494C94.6935 41.4439 95.1559 41.5948 95.6269 41.5711C95.8578 41.576 96.0874 41.5362 96.302 41.4543C96.4812 41.3883 96.6371 41.2752 96.7521 41.1278C96.8561 40.9823 96.9103 40.809 96.9074 40.6326C96.9164 40.4631 96.8556 40.297 96.7386 40.1699C96.6232 40.0531 96.4794 39.9653 96.32 39.9147ZM103.276 38.3838C103.018 38.2491 102.729 38.1784 102.435 38.1784C102.142 38.1784 101.853 38.2491 101.595 38.3838C101.357 38.5232 101.167 38.7282 101.05 38.9719C100.926 39.2589 100.861 39.5668 100.861 39.8779C100.861 40.1889 100.926 40.497 101.05 40.784C101.17 41.027 101.361 41.2316 101.599 41.3721C101.856 41.5068 102.143 41.5775 102.435 41.5775C102.727 41.5775 103.015 41.5068 103.271 41.3721C103.509 41.2301 103.698 41.024 103.814 40.7796C103.941 40.494 104.007 40.1865 104.007 39.8758C104.007 39.5651 103.941 39.2576 103.814 38.9719C103.699 38.7289 103.512 38.5241 103.276 38.3838ZM103.289 40.8899C103.18 41.0039 103.048 41.0947 102.9 41.157C102.752 41.219 102.593 41.2512 102.432 41.2512C102.271 41.2512 102.112 41.219 101.964 41.157C101.816 41.0947 101.684 41.0039 101.575 40.8899C101.353 40.5954 101.245 40.2362 101.269 39.8736C101.245 39.5136 101.353 39.157 101.575 38.866C101.679 38.7457 101.811 38.6506 101.96 38.5879C102.109 38.5252 102.272 38.4969 102.434 38.5049C102.596 38.496 102.757 38.5239 102.906 38.5857C103.054 38.6478 103.186 38.7423 103.289 38.8616C103.512 39.1538 103.62 39.5123 103.595 39.8736C103.62 40.2356 103.511 40.5943 103.289 40.8878V40.8899ZM69.5678 38.3838C69.3131 38.2424 69.0226 38.1714 68.7284 38.1784C68.4336 38.1716 68.1424 38.2428 67.8868 38.3838C67.6489 38.5235 67.4601 38.7282 67.3445 38.9719C67.2198 39.2589 67.1554 39.5668 67.1554 39.8779C67.1554 40.1889 67.2198 40.497 67.3445 40.784C67.4633 41.0277 67.6543 41.2322 67.8936 41.3721C68.1469 41.5131 68.4357 41.5842 68.7284 41.5775C69.021 41.584 69.3099 41.5129 69.5633 41.3721C69.8014 41.2303 69.9909 41.0242 70.1079 40.7796C70.2341 40.4938 70.2992 40.1863 70.2992 39.8758C70.2992 39.5653 70.2341 39.2578 70.1079 38.9719C69.9927 38.7287 69.8046 38.5241 69.5678 38.3838ZM69.5836 40.8878C69.4798 41.0076 69.3486 41.1025 69.2003 41.1652C69.0518 41.2277 68.8902 41.2564 68.7284 41.2489C68.5657 41.2571 68.4035 41.2288 68.2541 41.166C68.1049 41.1033 67.973 41.008 67.8688 40.8878C67.6462 40.5937 67.538 40.2341 67.5627 39.8715C67.538 39.5114 67.6465 39.1546 67.8688 38.8638C67.9737 38.7447 68.106 38.6506 68.2552 38.589C68.4044 38.5276 68.5664 38.5001 68.7284 38.5092C68.89 38.5003 69.0516 38.5282 69.2001 38.5901C69.3486 38.6521 69.4798 38.7466 69.5836 38.866C69.8055 39.1585 69.9137 39.5166 69.8896 39.8779C69.9117 40.2384 69.8037 40.595 69.5836 40.8878ZM77.4598 40.1288C77.3912 40.0602 77.3012 40.0155 77.2033 40.0012C77.4042 39.9534 77.5836 39.844 77.7141 39.6898C77.8372 39.5309 77.9007 39.3365 77.8941 39.1384C77.902 39.01 77.8788 38.8813 77.8264 38.7628C77.7742 38.6443 77.6941 38.539 77.5926 38.4551C77.3457 38.2813 77.0428 38.1972 76.7375 38.2173H75.3625V41.5365H75.7563V40.0877H76.6204C76.7543 40.081 76.8878 40.1054 77.0097 40.159C77.1184 40.2196 77.199 40.318 77.2348 40.4337L77.6623 41.5386H78.0854L77.6466 40.4142C77.6081 40.3072 77.5442 40.2101 77.4598 40.1309V40.1288ZM76.7037 39.7677H75.7563V38.5308H76.7037C76.9168 38.5144 77.129 38.5693 77.3045 38.6865C77.3723 38.7423 77.4252 38.8128 77.4594 38.8921C77.4933 38.9715 77.5073 39.0573 77.5003 39.1428C77.5003 39.5622 77.2348 39.7713 76.7037 39.7698V39.7677ZM92.0939 40.4402H93.4688V40.1309H92.0939V40.4402ZM65.2156 39.8498L64.1175 38.2173H63.6404L64.9906 40.1915V41.5365H65.3979V40.1958L66.7594 38.2173H66.3093L65.2156 39.8498ZM73.7535 40.2693C73.7751 40.5355 73.686 40.7991 73.5059 41.0024C73.4101 41.0897 73.2964 41.1572 73.172 41.2C73.0478 41.2428 72.9154 41.2601 72.7836 41.251C72.6501 41.2601 72.516 41.2428 72.3898 41.2C72.2635 41.1574 72.1478 41.0899 72.05 41.0024C71.8699 40.7991 71.7808 40.5355 71.8024 40.2693V38.2173H71.3974V40.2391C71.3699 40.6034 71.4937 40.9634 71.7417 41.2402C71.8812 41.36 72.0443 41.4515 72.2214 41.5094C72.3983 41.5674 72.5858 41.5905 72.7723 41.5775C72.9575 41.5896 73.1432 41.5659 73.3185 41.507C73.4936 41.4482 73.6547 41.3561 73.7917 41.2359C73.9153 41.0999 74.0098 40.942 74.0697 40.771C74.1295 40.5997 74.1536 40.4192 74.1405 40.2391V38.2194H73.7422L73.7535 40.2693ZM83.0722 38.3838C82.8143 38.2491 82.5254 38.1784 82.2317 38.1784C81.938 38.1784 81.6491 38.2491 81.3912 38.3838C81.1533 38.5235 80.9645 38.7282 80.8488 38.9719C80.7242 39.2589 80.6598 39.5668 80.6598 39.8779C80.6598 40.1889 80.7242 40.497 80.8488 40.784C80.9677 41.0277 81.1587 41.2322 81.3979 41.3721C81.6538 41.5068 81.9409 41.5775 82.2328 41.5775C82.5247 41.5775 82.8118 41.5068 83.0677 41.3721C83.3058 41.2303 83.4953 41.0242 83.6123 40.7796C83.7385 40.4938 83.8036 40.1863 83.8036 39.8758C83.8036 39.5653 83.7385 39.2578 83.6123 38.9719C83.4939 38.7272 83.302 38.5224 83.0609 38.3838H83.0722ZM83.0767 40.8878C82.9676 41.0017 82.835 41.0925 82.6874 41.1548C82.5398 41.2169 82.3804 41.2491 82.2193 41.2491C82.0582 41.2491 81.8989 41.2169 81.7512 41.1548C81.6036 41.0925 81.4711 41.0017 81.3619 40.8878C81.1394 40.5937 81.0311 40.2341 81.0559 39.8715C81.0311 39.5114 81.1396 39.1546 81.3619 38.8638C81.4715 38.7505 81.6041 38.6601 81.7517 38.5983C81.8991 38.5364 82.0584 38.5046 82.2193 38.5046C82.3802 38.5046 82.5395 38.5364 82.6869 38.5983C82.8346 38.6601 82.9671 38.7505 83.0767 38.8638C83.2986 39.1564 83.4068 39.5145 83.3827 39.8758C83.4053 40.2369 83.2972 40.5945 83.0767 40.8878ZM88.9276 41.5365H91.1127V41.2208H89.3124V40.0228H91.0092V39.7006H89.3124V38.5416H91.1127V38.2259H88.9276V41.5365ZM87.3096 40.8878L85.2213 38.2173H84.9152V41.5365H85.2888V38.866L87.3771 41.5365H87.6877V38.2173H87.3096V40.8878ZM183.013 40.4402H184.385V40.1309H183.013V40.4402ZM106.501 38.2151H105.121V41.5365H105.519V40.0769H106.501C106.8 40.0942 107.095 40.0057 107.331 39.8282C107.431 39.7428 107.51 39.6368 107.562 39.5181C107.615 39.3996 107.639 39.2714 107.633 39.1428C107.639 39.0147 107.615 38.8869 107.563 38.7689C107.511 38.6508 107.432 38.5459 107.331 38.4616C107.096 38.2875 106.804 38.2006 106.507 38.2173L106.501 38.2151ZM107.045 39.6012C106.878 39.7179 106.673 39.7739 106.467 39.759H105.519V38.5308H106.467C106.673 38.5165 106.878 38.5734 107.045 38.6908C107.111 38.7468 107.163 38.8169 107.197 38.8952C107.23 38.9734 107.245 39.0582 107.239 39.1428C107.245 39.2279 107.232 39.3138 107.2 39.3934C107.167 39.4732 107.117 39.5447 107.052 39.6033L107.045 39.6012ZM153.916 38.2151H153.517V41.5365H155.648V41.2121H153.916V38.2151ZM155.572 38.5416H156.776V41.5365H157.179V38.5438H158.38V38.2173H155.579L155.572 38.5416ZM150.74 38.2151L149.228 41.5365H149.64L150.025 40.6823H151.825L152.203 41.5365H152.61L151.091 38.2151H150.74ZM150.158 40.3774L150.92 38.6692L151.683 40.3774H150.158ZM146.39 41.5365H148.576V41.2208H146.775V40.0228H148.479V39.7006H146.784V38.5416H148.585V38.2259H146.399L146.39 41.5365ZM177.547 38.5092C177.727 38.5062 177.907 38.5362 178.075 38.5978C178.256 38.6666 178.422 38.7663 178.566 38.8919L178.717 38.5978C178.571 38.4564 178.393 38.3492 178.197 38.2843C177.987 38.2104 177.765 38.1738 177.542 38.1762C177.243 38.1699 176.948 38.2408 176.687 38.3816C176.446 38.5213 176.254 38.7259 176.133 38.9698C175.997 39.2519 175.931 39.5605 175.94 39.8715C175.932 40.185 175.998 40.4964 176.133 40.7818C176.254 41.0257 176.446 41.2303 176.687 41.37C176.948 41.5107 177.243 41.5816 177.542 41.5754C177.765 41.578 177.987 41.5429 178.197 41.4716C178.393 41.4043 178.571 41.2958 178.717 41.1537L178.566 40.8596C178.422 40.9853 178.256 41.085 178.075 41.1537C177.907 41.2154 177.727 41.2454 177.547 41.2424C177.381 41.2521 177.215 41.2253 177.061 41.1637C176.908 41.1023 176.772 41.008 176.662 40.8878C176.437 40.5948 176.327 40.2347 176.352 39.8715C176.327 39.5108 176.437 39.1533 176.662 38.8638C176.772 38.7442 176.909 38.6504 177.062 38.589C177.215 38.5276 177.381 38.5003 177.547 38.5092ZM171.207 39.692H169.133V38.2173H168.732V41.5365H169.126V40.0228H171.207V41.5365H171.606V38.2173H171.207V39.692ZM161.736 39.692H159.663V38.2173H159.269V41.5365H159.663V40.0228H161.736V41.5365H162.134V38.2173H161.736V39.692ZM166.506 38.5092C166.687 38.5064 166.866 38.5364 167.035 38.5978C167.216 38.6666 167.382 38.7663 167.526 38.8919L167.677 38.5978C167.529 38.4605 167.351 38.3563 167.157 38.293C166.947 38.2192 166.725 38.1827 166.502 38.1848C166.203 38.1781 165.907 38.2491 165.647 38.3903C165.405 38.5287 165.212 38.7336 165.093 38.9784C164.956 39.2604 164.889 39.569 164.897 39.8801C164.89 40.1939 164.957 40.5052 165.093 40.7905C165.212 41.0352 165.405 41.2402 165.647 41.3786C165.907 41.5198 166.203 41.5907 166.502 41.584C166.725 41.5866 166.947 41.5514 167.157 41.4802C167.352 41.4119 167.529 41.3034 167.677 41.1624L167.526 40.8683C167.382 40.9939 167.216 41.0936 167.035 41.1624C166.866 41.2238 166.687 41.2538 166.506 41.251C166.341 41.2608 166.175 41.2339 166.021 41.1723C165.868 41.1109 165.731 41.0166 165.622 40.8964C165.397 40.6034 165.287 40.2434 165.311 39.8801C165.286 39.5194 165.396 39.162 165.622 38.8725C165.731 38.7512 165.867 38.6554 166.02 38.5924C166.174 38.5295 166.34 38.501 166.506 38.5092ZM144.75 39.6898H142.675V38.2151H142.284V41.5365H142.675V40.0228H144.75V41.5365H145.148V38.2173H144.75V39.6898ZM172.841 41.5365H175.033V41.2208H173.233V40.0228H174.927V39.7006H173.233V38.5416H175.033V38.2259H172.848L172.841 41.5365ZM137.776 38.2173H136.615V41.5365H137.776C138.01 41.5613 138.247 41.5354 138.47 41.4606C138.692 41.386 138.894 41.2642 139.061 41.1044C139.228 40.9446 139.355 40.7509 139.434 40.5375C139.513 40.3243 139.541 40.0966 139.516 39.8715C139.531 39.6487 139.499 39.4254 139.422 39.215C139.345 39.0044 139.223 38.8115 139.066 38.6476C138.892 38.4962 138.688 38.3801 138.466 38.3061C138.245 38.2322 138.01 38.2019 137.776 38.2173ZM138.757 40.8878C138.623 41.0073 138.464 41.099 138.291 41.1567C138.118 41.2143 137.934 41.237 137.751 41.2229H137.013V38.5438H137.751C138.651 38.5438 139.102 38.9871 139.102 39.8736C139.117 40.0561 139.094 40.2397 139.035 40.4138C138.976 40.5878 138.882 40.7489 138.757 40.8878ZM119.501 41.0651L118.232 38.2281H117.809L119.321 41.5365H119.674L121.184 38.2151H120.772L119.501 41.0651ZM115.45 38.2281H114.289V41.5365H115.45C115.684 41.5609 115.921 41.5347 116.143 41.4599C116.365 41.3849 116.567 41.2631 116.734 41.1033C116.9 40.9438 117.028 40.7502 117.106 40.537C117.185 40.3238 117.213 40.0963 117.188 39.8715C117.204 39.6487 117.172 39.4252 117.095 39.2145C117.017 39.0041 116.896 38.8111 116.738 38.6476C116.564 38.4964 116.361 38.3803 116.141 38.3064C115.92 38.2324 115.686 38.2021 115.453 38.2173L115.45 38.2281ZM116.434 40.8878C116.299 41.0071 116.14 41.0984 115.967 41.1561C115.794 41.2138 115.611 41.2365 115.428 41.2229H114.69V38.5438H115.428C116.328 38.5438 116.778 38.9871 116.778 39.8736C116.793 40.0561 116.77 40.2397 116.711 40.4136C116.652 40.5876 116.558 40.7487 116.434 40.8878ZM128.046 40.9007L125.955 38.2281H125.649V41.5365H126.025V38.866L128.113 41.5365H128.424V38.2173H128.046V40.9007ZM182.383 38.2281H181.872L180.173 39.7525V38.2281H179.774V41.5365H180.173V39.958L181.955 41.5386H182.475L180.576 39.8369L182.383 38.2281ZM191.706 38.4746C191.47 38.2975 191.174 38.2097 190.875 38.2281H189.496V41.5365H189.885V40.0769H190.866C191.166 40.0942 191.461 40.0057 191.697 39.8282C191.797 39.7428 191.876 39.6368 191.928 39.5181C191.98 39.3996 192.004 39.2714 191.998 39.1428C192.006 39.0156 191.984 38.8885 191.933 38.771C191.883 38.6534 191.805 38.5483 191.706 38.4638V38.4746ZM191.42 39.6141C191.253 39.7311 191.048 39.7871 190.842 39.772H189.885V38.5438H190.833C191.039 38.5293 191.244 38.586 191.411 38.7038C191.478 38.7596 191.53 38.8294 191.563 38.9079C191.597 38.9862 191.611 39.0712 191.605 39.1557C191.61 39.2388 191.596 39.322 191.564 39.3992C191.532 39.4766 191.483 39.5462 191.42 39.6033V39.6141ZM111.517 38.2281L109.998 41.5365H110.41L110.794 40.6823H112.595L112.973 41.5365H113.382L111.861 38.2151L111.517 38.2281ZM110.934 40.3904L111.694 38.6822L112.457 40.3904H110.934ZM122.874 38.2281L121.355 41.5365H121.767L122.152 40.6823H123.952L124.33 41.5365H124.738L123.219 38.2151L122.874 38.2281ZM122.291 40.3904L123.054 38.6822L123.817 40.3904H122.291ZM187.878 40.291C187.898 40.5569 187.81 40.8201 187.63 41.024C187.534 41.1113 187.42 41.1786 187.295 41.2214C187.17 41.2642 187.038 41.2817 186.906 41.2727C186.772 41.2817 186.638 41.2644 186.512 41.2216C186.386 41.179 186.27 41.1116 186.172 41.024C185.993 40.8201 185.904 40.5569 185.925 40.291V38.2389H185.531V40.2391C185.503 40.6041 185.627 40.965 185.875 41.2424C186.015 41.362 186.178 41.4534 186.355 41.5114C186.532 41.5693 186.719 41.5927 186.906 41.5797C187.091 41.5922 187.277 41.5685 187.452 41.5099C187.628 41.451 187.788 41.3585 187.925 41.2381C188.05 41.1023 188.145 40.944 188.205 40.7725C188.266 40.601 188.29 40.4196 188.276 40.2391V38.2194H187.878V40.291ZM133.372 41.5365H135.557V41.2208H133.757V40.0228H135.454V39.7006H133.757V38.5416H135.557V38.2259H133.372V41.5365ZM131.151 38.5092C131.332 38.5062 131.511 38.5362 131.68 38.5978C131.861 38.6666 132.027 38.7663 132.17 38.8919L132.321 38.5978C132.174 38.4573 131.997 38.3503 131.801 38.2843C131.592 38.2106 131.37 38.174 131.147 38.1762C130.847 38.1695 130.552 38.2404 130.291 38.3816C130.05 38.52 129.857 38.725 129.738 38.9698C129.601 39.2517 129.534 39.5603 129.542 39.8715C129.535 40.1852 129.601 40.4966 129.738 40.7818C129.857 41.0266 130.05 41.2316 130.291 41.37C130.552 41.5112 130.847 41.5821 131.147 41.5754C131.37 41.578 131.591 41.5427 131.801 41.4716C131.997 41.4033 132.174 41.2947 132.321 41.1537L132.17 40.8596C132.027 40.9853 131.861 41.085 131.68 41.1537C131.511 41.2154 131.332 41.2454 131.151 41.2424C130.983 41.2545 130.814 41.2288 130.657 41.1673C130.501 41.1057 130.362 41.0099 130.251 40.8878C130.026 40.5948 129.916 40.2347 129.94 39.8715C129.915 39.5108 130.025 39.1533 130.251 38.8638C130.362 38.7421 130.502 38.6465 130.658 38.5851C130.814 38.5235 130.983 38.4975 131.151 38.5092ZM180.533 29.3495V29.2501L180.789 26.1601L180.825 25.7406H179.795L179.772 26.106C179.74 27.112 179.407 28.0878 178.814 28.9171C178.295 29.6443 177.566 30.2089 176.716 30.541C175.747 30.89 174.718 31.0608 173.683 31.0448C172.629 31.0671 171.589 30.8128 170.674 30.3096C169.826 29.8278 169.145 29.1151 168.718 28.2619C168.243 27.2538 168.012 26.1551 168.043 25.0487C168.043 23.1328 168.563 21.6711 169.558 20.618C170.552 19.565 171.903 19.0309 173.671 19.0309C175.222 19.0309 176.421 19.3444 177.304 19.9326C178.186 20.5207 178.784 21.3986 179.104 22.616L179.18 22.9123H180.18L180.108 22.4625L179.567 19.2644L179.538 19.0849L179.378 18.992C178.548 18.5203 177.648 18.1705 176.709 17.954C175.721 17.7081 174.704 17.5817 173.683 17.5778C171.207 17.5778 169.211 18.2265 167.724 19.578C166.25 20.9272 165.532 22.7674 165.532 25.0465C165.532 27.3256 166.25 29.1441 167.724 30.4934L168.003 30.2101L167.715 30.5086C169.2 31.8557 171.203 32.5174 173.671 32.5325C175.041 32.5459 176.397 32.2722 177.646 31.7303C178.795 31.2344 179.774 30.4361 180.47 29.4274L180.533 29.3495ZM182.304 31.2805L182.398 31.3605C182.959 31.7977 183.621 32.0983 184.329 32.2363C185.116 32.4244 185.924 32.5202 186.735 32.5217C187.919 32.5481 189.068 32.1318 189.939 31.3605C190.369 31.0037 190.712 30.5611 190.945 30.0638C191.179 29.5662 191.296 29.0258 191.29 28.4803C191.29 27.3602 190.889 26.4455 190.063 25.7882L185.337 22.2744C184.804 21.8527 184.572 21.3921 184.572 20.884C184.565 20.631 184.622 20.3802 184.74 20.1538C184.858 19.9275 185.032 19.7326 185.247 19.5866C185.775 19.2048 186.426 19.0114 187.086 19.0395C187.88 19.0395 188.425 19.2039 188.783 19.472C188.961 19.6111 189.101 19.7891 189.193 19.9911C189.284 20.1931 189.324 20.4133 189.309 20.6332V21.0224H190.385V20.6267L190.338 18.1681V17.7854H189.212C188.49 17.6445 187.754 17.577 187.016 17.5843C186.214 17.5688 185.419 17.737 184.698 18.0751C184.069 18.3683 183.531 18.8158 183.139 19.3725C182.772 19.9188 182.579 20.556 182.583 21.2062C182.563 21.7307 182.667 22.2529 182.886 22.7336C183.105 23.2143 183.435 23.6412 183.85 23.9826L188.526 27.4424C188.75 27.6374 188.926 27.8781 189.04 28.1466C189.154 28.4152 189.205 28.7052 189.188 28.9949C189.195 29.2784 189.134 29.5599 189.009 29.8168C188.884 30.0739 188.699 30.2997 188.468 30.4761C187.984 30.8524 187.282 31.0643 186.307 31.0643C185.407 31.0643 184.732 30.8307 184.266 30.4156C184.032 30.189 183.849 29.9185 183.729 29.6207C183.608 29.3232 183.553 29.0049 183.566 28.6857C183.566 28.5644 183.573 28.4431 183.587 28.3224L183.636 27.89H182.612L182.52 28.1538C182.307 28.7378 182.197 29.3515 182.194 29.9701C182.178 30.3717 182.205 30.7739 182.275 31.1702L182.304 31.2805ZM152.093 31.0945C151.949 31.0357 151.826 30.9376 151.74 30.8121C151.653 30.6869 151.607 30.5399 151.607 30.3896V19.325H155.455C155.557 19.3203 155.659 19.3372 155.754 19.3746C155.849 19.4119 155.934 19.4688 156.004 19.5412C156.077 19.6135 156.135 19.6991 156.174 19.7931C156.212 19.887 156.231 19.9873 156.229 20.0883V20.8386H157.298V17.3183L156.742 17.5345C156.186 17.7508 155.369 17.8675 154.267 17.8675H146.615C146.357 17.8675 145.94 17.8394 145.367 17.781C144.955 17.7479 144.55 17.665 144.16 17.5345L143.605 17.3183V20.8321H144.653V20.0861C144.647 19.8845 144.719 19.6878 144.856 19.5347C144.928 19.4614 145.017 19.4042 145.114 19.3668C145.212 19.3295 145.318 19.313 145.423 19.3185H149.269V30.3464C149.263 30.459 149.234 30.5693 149.183 30.6707C149.132 30.7721 149.06 30.8627 148.972 30.9367C148.79 31.1034 148.548 31.1951 148.296 31.1918H147.621V32.1952H153.268V31.1918H152.604C152.428 31.2009 152.253 31.1659 152.095 31.0902L152.093 31.0945ZM79.9555 30.9151C79.8587 31.0109 79.7423 31.0863 79.6139 31.1365C79.4851 31.1867 79.3472 31.2107 79.2083 31.207H78.4927V32.2103H86.864C89.4565 32.2103 91.5898 31.46 93.2258 29.9334C94.8798 28.3916 95.7012 26.3763 95.7012 23.9264C95.7012 21.4765 94.8866 19.4677 93.2258 17.9411C91.5898 16.4036 89.4565 15.6447 86.864 15.6447H78.459L78.504 16.0771L78.5265 16.2934L78.5625 16.6437H79.2106C79.4937 16.6408 79.7669 16.743 79.9735 16.9291C80.077 16.9955 80.1618 17.0856 80.2203 17.1913C80.2788 17.2969 80.3092 17.4149 80.3088 17.5345V30.1539C80.3049 30.296 80.2719 30.4361 80.2118 30.5659C80.1515 30.6958 80.0651 30.813 79.9577 30.9107L79.9555 30.9151ZM82.6446 17.1021H86.864C88.7476 17.1021 90.2396 17.7227 91.3648 18.9574C92.5214 20.1964 93.1155 21.8398 93.1155 23.9307C93.1419 25.1799 92.8669 26.4183 92.3122 27.5483C91.8342 28.5248 91.0711 29.3467 90.1158 29.9139C89.1349 30.4882 88.0034 30.7808 86.855 30.7572H82.6446V17.1021ZM114.305 17.9043H109.059V18.9076H109.863C109.976 18.9052 110.089 18.9244 110.194 18.9641C110.299 19.0038 110.396 19.0632 110.477 19.139C110.558 19.2037 110.625 19.2833 110.674 19.3732C110.722 19.463 110.752 19.5613 110.761 19.6623V28.0954L99.259 17.6837L99.1577 17.5908L99.0182 17.5778L98.7594 17.5562L98.2598 17.5129L98.3229 17.9908L98.3701 18.3519C98.4831 19.148 98.5364 19.9508 98.5299 20.7543V30.4091C98.533 30.5129 98.5123 30.6158 98.4696 30.7112C98.4268 30.8063 98.3629 30.8915 98.2823 30.9605C98.1095 31.1162 97.88 31.2001 97.6432 31.194H96.8399V32.1973H102.099V31.194H101.293C101.057 31.2001 100.827 31.1162 100.654 30.9605C100.574 30.8911 100.51 30.8059 100.468 30.7107C100.425 30.6156 100.404 30.5127 100.407 30.4091V21.9154L111.933 32.4136L112.05 32.5217H112.874L112.824 32.0892L112.777 31.6827C112.666 30.8777 112.612 30.0664 112.615 29.2544V19.6493C112.618 19.5514 112.643 19.4552 112.688 19.3673C112.733 19.2793 112.797 19.2015 112.876 19.139C112.957 19.0634 113.054 19.0041 113.159 18.9644C113.265 18.9247 113.377 18.9054 113.49 18.9076H114.294L114.305 17.9043ZM142.779 28.4889C142.779 27.3688 142.378 26.4542 141.552 25.7968L136.826 22.283C136.293 21.8614 136.061 21.4008 136.061 20.8926C136.053 20.6406 136.109 20.3904 136.224 20.1642C136.34 19.9379 136.512 19.7425 136.725 19.5952C137.253 19.2138 137.902 19.0204 138.561 19.0482C139.356 19.0482 139.912 19.2125 140.26 19.4806C140.438 19.6197 140.579 19.7977 140.671 19.9997C140.762 20.2018 140.802 20.4219 140.787 20.6418V21.031H141.863V20.6353L141.818 18.1768V17.794H140.693C139.97 17.6531 139.234 17.5857 138.496 17.5929C137.694 17.5772 136.899 17.7455 136.178 18.0838C135.549 18.3769 135.011 18.8244 134.619 19.3812C134.234 19.9205 134.022 20.5565 134.009 21.2105C133.989 21.7353 134.093 22.2576 134.313 22.7384C134.532 23.2191 134.863 23.646 135.278 23.9869L139.957 27.4467C140.186 27.6357 140.368 27.8714 140.489 28.1367C140.611 28.4018 140.67 28.69 140.661 28.9798C140.668 29.2633 140.607 29.5448 140.482 29.8017C140.357 30.0588 140.172 30.2845 139.941 30.461C139.457 30.8372 138.753 31.0491 137.781 31.0491C136.88 31.0491 136.205 30.8156 135.74 30.4004C135.505 30.1738 135.322 29.9033 135.202 29.6056C135.082 29.308 135.026 28.9897 135.04 28.6706C135.04 28.5493 135.046 28.428 135.06 28.3073L135.109 27.8748H134.085L133.993 28.1386C133.779 28.7222 133.668 29.3361 133.665 29.955C133.65 30.3568 133.678 30.7589 133.748 31.1551L133.779 31.2719L133.872 31.3519C134.434 31.7887 135.097 32.089 135.805 32.2276C136.589 32.4144 137.394 32.5094 138.201 32.5109C139.386 32.5377 140.536 32.1214 141.408 31.3497C141.84 30.9955 142.186 30.555 142.423 30.059C142.66 29.5632 142.781 29.0237 142.779 28.4781V28.4889ZM164.211 31.5638L164.175 31.2135H163.5C163.195 31.2143 162.898 31.1188 162.656 30.941C162.56 30.8768 162.48 30.7929 162.422 30.6952C162.364 30.5976 162.329 30.4887 162.321 30.3766V19.7077C162.332 19.5978 162.368 19.4916 162.426 19.3961C162.484 19.3007 162.562 19.2182 162.656 19.1541C162.904 18.9796 163.204 18.8891 163.511 18.8968H164.222V17.8935H158.097V18.8968H158.808C159.123 18.8875 159.432 18.9846 159.681 19.1714C159.776 19.2326 159.855 19.3148 159.91 19.4111C159.965 19.5074 159.995 19.6151 159.998 19.725V30.3723C159.996 30.4824 159.965 30.5901 159.91 30.6863C159.855 30.7827 159.776 30.8649 159.681 30.9259C159.44 31.1116 159.139 31.2096 158.83 31.2027H158.097V32.206H164.279L164.234 31.7735L164.211 31.5638ZM116.4 27.9137L116.029 28.0716C116.449 28.9735 117.057 29.7831 117.815 30.4502C118.597 31.1103 119.501 31.6237 120.48 31.9638C121.603 32.342 122.787 32.5258 123.977 32.5065C125.333 32.5014 126.667 32.1848 127.87 31.5832C129.109 30.9745 130.153 30.0536 130.89 28.9192C131.636 27.7507 132.031 26.4066 132.031 25.0357C132.031 23.6648 131.636 22.3207 130.89 21.1521C130.156 20.0209 129.111 19.1071 127.87 18.5119C126.577 17.8916 125.152 17.5687 123.707 17.5687C122.262 17.5687 120.837 17.8916 119.544 18.5119C118.299 19.1097 117.247 20.0225 116.501 21.1521C115.774 22.2361 115.383 23.4972 115.376 24.787C115.352 25.9088 115.572 27.0233 116.022 28.0586L116.4 27.9137ZM119.58 20.7153C120.113 20.1826 120.753 19.7588 121.461 19.4693C122.169 19.1798 122.931 19.0306 123.7 19.0306C124.47 19.0306 125.231 19.1798 125.939 19.4693C126.647 19.7588 127.287 20.1826 127.821 20.7153C128.925 21.8203 129.49 23.2518 129.49 25.04C129.49 26.8283 128.925 28.2835 127.818 29.3949C127.281 29.9213 126.64 30.3392 125.932 30.6247C125.225 30.9101 124.465 31.0571 123.698 31.0571C122.93 31.0571 122.171 30.9101 121.463 30.6247C120.756 30.3392 120.115 29.9213 119.577 29.3949C118.486 28.2749 117.928 26.8326 117.928 25.0378C117.928 23.2431 118.488 21.8203 119.58 20.7153ZM71.6471 30.4026C71.644 30.5098 71.6181 30.6154 71.5713 30.7127C71.5245 30.81 71.4577 30.8973 71.3749 30.9691C71.202 31.1248 70.9725 31.2087 70.7358 31.2027H70.1349L70.0989 31.553L70.0764 31.7692L70.0314 32.2017H75.5313V31.1983H74.8562C74.6221 31.2053 74.3948 31.1227 74.2238 30.9691C74.1473 30.8932 74.0874 30.8035 74.0476 30.7051C74.0078 30.6067 73.9889 30.5016 73.992 30.3961V26.5882H75.9273L76.0083 26.305L76.5012 24.6119L76.6452 24.1189H75.6888L75.5673 24.2594C75.486 24.3649 75.3794 24.4501 75.2567 24.5081H75.2432C75.1816 24.5286 75.1172 24.5409 75.0519 24.5448C74.8971 24.5604 74.7416 24.5678 74.5861 24.5665H73.992V15.3203H73.1594L73.0379 15.4652L64.4348 25.7298L64.7498 25.9676L64.4348 25.7233L64.3447 25.8293V26.5818H71.6471V30.4026ZM67.358 24.5643L71.6471 19.4806V24.5794L67.358 24.5643Z" fill="white"/>
<path fill-rule="evenodd" clip-rule="evenodd" d="M48.4754 41.2717L48.4506 15.3177V15.1395L48.4099 15.114V14.7275L48.0819 14.9219L26.2775 2.00734C26.3519 1.78027 26.3729 1.53843 26.339 1.30147C26.3049 1.06451 26.2169 0.839099 26.0816 0.643552C25.9464 0.448006 25.7682 0.287835 25.5612 0.176049C25.3543 0.0642626 25.1243 0.00401312 24.8904 0.000193683C24.6563 -0.00362575 24.4248 0.0490925 24.2144 0.154067C24.0041 0.259041 23.8209 0.413312 23.6795 0.604348C23.5384 0.795386 23.4434 1.0178 23.402 1.25353C23.3604 1.48927 23.374 1.73167 23.4414 1.96105L2.59816 14.3039C2.45473 14.1396 2.27814 14.009 2.08057 13.9213C1.88302 13.8335 1.66921 13.7907 1.45392 13.7958C1.23863 13.8009 1.02697 13.8537 0.833572 13.9506C0.640173 14.0476 0.469634 14.1863 0.333735 14.3573C0.197838 14.5282 0.0998162 14.7273 0.0464382 14.9408C-0.00694007 15.1543 -0.014401 15.3771 0.0245693 15.5939C0.0635393 15.8106 0.148013 16.0161 0.272157 16.1962C0.396301 16.3763 0.557155 16.5266 0.743615 16.6369C0.870715 16.7102 1.00799 16.7633 1.15071 16.7943L1.17106 35.7171V41.2602C0.944541 41.3127 0.733133 41.4185 0.553701 41.5694C0.37427 41.7203 0.231782 41.9121 0.137609 42.1292C0.0434363 42.3466 0.000182051 42.5833 0.0112966 42.8208C0.0224114 43.0583 0.0875868 43.2897 0.201626 43.4966C0.315664 43.7037 0.475408 43.8806 0.668115 44.0134C0.860823 44.146 1.08116 44.2307 1.31155 44.2608C1.54193 44.2909 1.77599 44.2655 1.99506 44.1863C2.21413 44.1074 2.41214 43.9773 2.57328 43.806L23.369 56.1212C23.3204 56.3299 23.3154 56.5466 23.3543 56.7574C23.3932 56.9682 23.4751 57.1682 23.5945 57.3446C23.7141 57.5207 23.8686 57.6691 24.048 57.7802C24.2273 57.891 24.4277 57.9621 24.6358 57.9884C24.8436 58.0148 25.0548 57.9959 25.2552 57.9331C25.4556 57.8702 25.6408 57.7649 25.7989 57.6239C25.9568 57.4827 26.0839 57.3092 26.1719 57.1145C26.2596 56.9199 26.3064 56.7083 26.3092 56.4938C26.3067 56.3607 26.2877 56.2286 26.2526 56.1003L47.0393 43.7898C47.1969 43.9637 47.3919 44.0972 47.609 44.1803C47.8259 44.2631 48.0589 44.2932 48.2891 44.2678C48.5193 44.2425 48.7407 44.1625 48.9355 44.0342C49.1302 43.9058 49.293 43.7327 49.4109 43.5288C49.5289 43.3246 49.5986 43.0953 49.6144 42.8587C49.6305 42.6222 49.5922 42.3852 49.5029 42.1665C49.4138 41.9478 49.2758 41.7534 49.1001 41.599C48.9244 41.4444 48.7161 41.334 48.4913 41.2764L48.4754 41.2717ZM48.3465 41.2463C48.2719 41.2312 48.1964 41.2227 48.1204 41.2208C48.1979 41.2224 48.2751 41.231 48.3511 41.2463H48.3465ZM48.1204 41.2208C48.0392 41.2222 47.9582 41.2308 47.8784 41.2463C47.9596 41.2303 48.0421 41.2217 48.1249 41.2208H48.1204ZM25.9609 2.54428L47.4668 15.2737L39.0467 20.2706C38.9521 20.1857 38.8407 20.1229 38.7201 20.0866C38.5993 20.0502 38.4725 20.0412 38.3481 20.0602C38.2237 20.0791 38.1047 20.1256 37.9995 20.1963C37.8946 20.267 37.8057 20.3602 37.7395 20.4696L25.6578 13.3481C25.6598 13.3126 25.6598 13.2771 25.6578 13.2416C25.6576 13.0742 25.6114 12.9102 25.5246 12.7682C25.438 12.6263 25.314 12.5121 25.167 12.4385V3.01411C25.3256 2.98359 25.4782 2.92735 25.6194 2.84747C25.7476 2.76462 25.8627 2.66241 25.9609 2.54428ZM24.7939 54.9616C24.7127 54.9635 24.6319 54.9714 24.5519 54.9848C24.6317 54.97 24.7127 54.9623 24.7939 54.9616ZM11.9025 37.3372C11.9552 37.1164 11.9219 36.8831 11.8098 36.6868C11.6991 36.4908 11.5196 36.345 11.3077 36.2795L11.2919 21.8189C11.4639 21.7802 11.6211 21.6909 11.7442 21.562L23.3962 28.4312C23.3428 28.5851 23.3145 28.7469 23.3125 28.9103C23.3132 29.3151 23.4706 29.703 23.7506 29.9891C24.0303 30.2749 24.4096 30.4355 24.8052 30.4355C24.7346 30.4332 24.6645 30.4263 24.5948 30.4147L24.5813 43.9171C24.498 43.9357 24.418 43.9669 24.3438 44.0097C24.1687 44.1146 24.0346 44.2782 23.9638 44.4726L11.9025 37.3372ZM24.7916 14.1373C24.9621 14.137 25.129 14.0858 25.2715 13.9901C25.414 13.8943 25.5264 13.7581 25.5945 13.598L37.6399 20.6987C37.6157 20.779 37.6026 20.8624 37.6015 20.9464C37.6026 21.0296 37.6157 21.1122 37.6399 21.1917L26.04 28.0609C25.8937 27.8374 25.692 27.6575 25.4556 27.5397C25.2193 27.4219 24.9567 27.3701 24.6946 27.39C24.4322 27.4096 24.1798 27.5001 23.9629 27.6522C23.746 27.8043 23.5723 28.0123 23.4595 28.2553C23.486 28.1952 23.5169 28.1371 23.5522 28.0818L11.9387 21.2056C11.9915 21.041 11.9915 20.8634 11.9387 20.6987L23.9865 13.598C24.0541 13.759 24.1665 13.8959 24.3096 13.9918C24.4528 14.0877 24.6204 14.1383 24.7916 14.1373ZM25.6827 28.9126C25.6827 29.0911 25.6309 29.2656 25.5341 29.4142C25.4371 29.5625 25.2993 29.6783 25.1381 29.7465C24.977 29.8148 24.7997 29.8329 24.6285 29.7979C24.4576 29.7632 24.3004 29.6771 24.1769 29.551C24.0536 29.4246 23.9695 29.2637 23.9356 29.0888C23.9014 28.9136 23.9191 28.7321 23.9858 28.5673C24.0525 28.4023 24.1656 28.2614 24.3105 28.1621C24.4557 28.063 24.6263 28.01 24.8006 28.01C25.0345 28.0107 25.2584 28.1058 25.4237 28.275C25.589 28.4442 25.682 28.6736 25.6827 28.9126ZM25.5357 44.3407C25.4764 44.2358 25.3968 44.1444 25.302 44.072C25.2073 43.9998 25.099 43.9477 24.9838 43.9195L24.9703 30.4217L24.8572 30.4332C25.2423 30.4196 25.6074 30.2532 25.8751 29.9696C26.1431 29.6861 26.2929 29.307 26.2933 28.9126C26.2915 28.7462 26.2623 28.581 26.2074 28.4243L37.8458 21.5643C37.9577 21.6856 38.1013 21.7715 38.2596 21.812L38.2461 36.2818C38.0332 36.3466 37.8528 36.4924 37.7417 36.6891C37.6316 36.8861 37.5986 37.1185 37.649 37.3395L25.5945 44.4772C25.5791 44.43 25.5594 44.3842 25.5357 44.3407ZM24.4252 0.752912C24.5761 0.663445 24.7498 0.621797 24.9237 0.633228C25.0978 0.644661 25.2647 0.708662 25.4031 0.81714C25.5418 0.925617 25.6458 1.0737 25.7021 1.24266C25.7584 1.41162 25.7645 1.59388 25.7195 1.76638C25.6748 1.93888 25.5807 2.09388 25.4497 2.21177C25.3188 2.32967 25.1566 2.40519 24.9836 2.42875C24.8108 2.45231 24.6349 2.42287 24.4784 2.34415C24.3219 2.26543 24.1916 2.14097 24.1041 1.98651C24.0446 1.88354 24.0057 1.76951 23.9896 1.65102C23.9736 1.53254 23.9806 1.41197 24.0107 1.29633C24.0405 1.18069 24.0925 1.07227 24.1638 0.977396C24.2348 0.882518 24.3237 0.803066 24.4252 0.743654V0.752912ZM23.5748 2.2897C23.773 2.63904 24.0982 2.89372 24.4795 2.99791V12.4107C24.3162 12.4763 24.1762 12.5906 24.0774 12.7388C23.9785 12.887 23.9256 13.0622 23.9254 13.2416C23.927 13.2773 23.9308 13.3128 23.9367 13.3481L11.846 20.4696C11.7675 20.3414 11.6584 20.2357 11.5291 20.1624C11.3997 20.0892 11.2543 20.0507 11.1064 20.0507C10.8921 20.0517 10.6857 20.1341 10.5275 20.2821L2.91027 15.769C3.0046 15.4679 3.0046 15.1442 2.91027 14.8432L23.7377 2.50957C23.6771 2.44138 23.6226 2.36781 23.5748 2.2897ZM0.725522 14.8594C0.812491 14.7045 0.942404 14.5796 1.09881 14.5003C1.25522 14.421 1.4311 14.391 1.60418 14.4141C1.77726 14.4372 1.93976 14.5123 2.07111 14.6299C2.20246 14.7475 2.29675 14.9024 2.34207 15.0749C2.38737 15.2473 2.38165 15.4297 2.32563 15.5989C2.26961 15.7681 2.1658 15.9164 2.02735 16.0252C1.8889 16.1339 1.72203 16.1982 1.54786 16.2099C1.37369 16.2215 1.20006 16.1801 1.04894 16.0907C0.847479 15.9715 0.700339 15.7756 0.639727 15.5457C0.579115 15.3158 0.609964 15.0707 0.725522 14.864V14.8594ZM1.48091 43.6463C1.30646 43.6463 1.13593 43.5933 0.990876 43.4943C0.845826 43.395 0.732773 43.2541 0.666014 43.0893C0.599255 42.9242 0.581786 42.7428 0.61582 42.5676C0.649853 42.3926 0.733861 42.2318 0.857215 42.1054C0.980572 41.9793 1.13773 41.8934 1.30883 41.8584C1.47993 41.8237 1.65728 41.8415 1.81845 41.9098C1.97962 41.9781 2.11738 42.0938 2.21429 42.2422C2.31123 42.3908 2.36295 42.5653 2.36295 42.7437C2.36415 42.9828 2.27269 43.2124 2.10861 43.3825C1.94453 43.5526 1.72123 43.6491 1.48769 43.651L1.48091 43.6463ZM1.77944 41.2486V35.7125L1.7998 16.7989C2.11548 16.73 2.40104 16.5588 2.61399 16.3106L10.2425 20.8283C10.2223 20.9503 10.2281 21.0753 10.2593 21.1948C10.2906 21.3143 10.3467 21.4255 10.4237 21.5208C10.5008 21.6161 10.597 21.6933 10.7058 21.7472C10.8147 21.801 10.9336 21.8302 11.0544 21.8328L11.0702 36.2401C10.9394 36.2367 10.8095 36.2638 10.6904 36.3193C10.5713 36.3748 10.466 36.4572 10.3826 36.5605C10.2991 36.6637 10.2397 36.785 10.2088 36.915C10.1779 37.0453 10.1762 37.181 10.204 37.3117L2.64339 41.7925C2.42777 41.5161 2.12461 41.3254 1.78623 41.2532L1.77944 41.2486ZM23.6291 55.5449L2.89217 43.2784C2.95405 43.1119 2.98623 42.9356 2.98716 42.7576C2.98619 42.6227 2.96638 42.4887 2.92836 42.3595L10.532 37.8556C10.6693 37.9642 10.8351 38.0285 11.0083 38.0406C11.1814 38.0526 11.3542 38.0116 11.5045 37.9227C11.6396 37.8413 11.7512 37.7249 11.8279 37.5848L23.9096 44.7388C23.8969 44.9269 23.943 45.1144 24.0414 45.2736C24.1398 45.4331 24.2854 45.5562 24.4569 45.6252L24.4682 55.0172C24.1378 55.0898 23.8417 55.2762 23.6291 55.5449ZM24.8006 57.3825C24.6263 57.3825 24.4557 57.3295 24.3105 57.2305C24.1656 57.1312 24.0525 56.9902 23.9858 56.8254C23.9191 56.6604 23.9014 56.479 23.9356 56.3038C23.9695 56.1288 24.0536 55.9679 24.1769 55.8416C24.3004 55.7154 24.4576 55.6296 24.6285 55.5946C24.7997 55.5599 24.977 55.5777 25.1381 55.646C25.2993 55.7143 25.4371 55.83 25.5341 55.9784C25.6309 56.1269 25.6827 56.3015 25.6827 56.4799C25.6845 56.5996 25.663 56.7185 25.6196 56.8296C25.5759 56.9407 25.5112 57.0418 25.4291 57.1273C25.3471 57.2124 25.2493 57.2802 25.1412 57.3265C25.0334 57.3726 24.9176 57.3964 24.8006 57.3964V57.3825ZM25.9609 55.5449C25.7309 55.2516 25.4029 55.0554 25.0404 54.994C25.0607 54.994 25.0811 54.994 25.1014 54.994V45.6136C25.1376 45.5974 25.1738 45.5835 25.2077 45.565C25.3477 45.4815 25.4622 45.3597 25.5384 45.2135C25.6146 45.0669 25.6497 44.9019 25.6397 44.7364L37.7327 37.5756C37.7962 37.6901 37.8838 37.7887 37.9891 37.8642C38.0945 37.9399 38.2149 37.9906 38.3417 38.0128C38.4686 38.035 38.5987 38.0278 38.7224 37.9924C38.8463 37.9568 38.961 37.8936 39.058 37.807L46.6774 42.3179C46.5836 42.6206 46.5924 42.9467 46.7023 43.2436L25.9609 55.5449ZM46.9737 41.7855L39.3656 37.2816C39.3929 37.1034 39.3669 36.9211 39.2909 36.7584C39.2152 36.5956 39.0928 36.46 38.9404 36.3698C38.8029 36.2894 38.6464 36.2494 38.4881 36.254L38.5016 21.849C38.7292 21.843 38.9456 21.7462 39.1044 21.5793C39.2631 21.4124 39.352 21.1886 39.352 20.9556C39.3509 20.9129 39.3464 20.8703 39.3384 20.8283L47.797 15.8199L47.7721 41.2787C47.4591 41.3518 47.1779 41.5272 46.9715 41.7786L46.9737 41.7855ZM48.1158 43.6649C47.9415 43.6649 47.7709 43.6119 47.6257 43.5128C47.4808 43.4135 47.3677 43.2726 47.301 43.1078C47.2343 42.9428 47.2166 42.7613 47.2508 42.5861C47.2847 42.4111 47.3688 42.2503 47.4921 42.1239C47.6156 41.9978 47.7728 41.9119 47.9437 41.877C48.1149 41.8422 48.2923 41.8601 48.4533 41.9283C48.6145 41.9966 48.7523 42.1123 48.8493 42.2607C48.9461 42.4093 48.9979 42.5838 48.9979 42.7622C48.9943 42.9976 48.9011 43.2223 48.738 43.3883C48.575 43.5545 48.3549 43.6487 48.1249 43.651L48.1158 43.6649Z" fill="#FF6600"/>
</svg>
