<svg width="533" height="119" viewBox="0 0 533 119" fill="none" xmlns="http://www.w3.org/2000/svg">
<path d="M7.8986 117.975H6.02628V111.855L0.724976 101.968H2.7497L6.96244 109.972L11.2078 101.968H13.2108L7.8986 111.767V117.975Z" fill="white"/>
<path d="M15.4741 109.961C15.4741 107.34 16.1128 105.311 17.39 103.873C18.6672 102.435 20.4634 101.716 22.7784 101.716C25.1007 101.716 26.904 102.446 28.1885 103.906C29.473 105.366 30.1153 107.38 30.1153 109.95C30.1153 112.519 29.4694 114.537 28.1777 116.004C26.8932 117.464 25.0898 118.194 22.7675 118.194C20.4525 118.194 18.6564 117.475 17.3791 116.037C16.1091 114.599 15.4741 112.574 15.4741 109.961ZM28.1559 109.972C28.1559 107.804 27.7059 106.165 26.8061 105.056C25.9134 103.939 24.5854 103.381 22.8219 103.381C21.0657 103.381 19.7268 103.943 18.8051 105.067C17.8907 106.183 17.4335 107.818 17.4335 109.972C17.4335 112.118 17.8907 113.753 18.8051 114.877C19.7268 116.001 21.0657 116.563 22.8219 116.563C24.5781 116.563 25.9062 116.004 26.8061 114.888C27.7059 113.771 28.1559 112.132 28.1559 109.972Z" fill="white"/>
<path d="M46.5844 101.968V112.326C46.5844 114.158 46.0328 115.596 44.9298 116.639C43.8339 117.676 42.3317 118.194 40.4231 118.194C38.5145 118.194 37.0304 117.669 35.9709 116.617C34.9259 115.566 34.4034 114.121 34.4034 112.282V101.968H36.2539V112.413C36.2539 113.756 36.6168 114.785 37.3425 115.501C38.0754 116.209 39.1277 116.563 40.4993 116.563C41.8709 116.563 42.9196 116.201 43.6453 115.479C44.371 114.756 44.7338 113.727 44.7338 112.391V101.968H46.5844Z" fill="white"/>
<path d="M51.6998 101.968H56.0649C58.0098 101.968 59.4503 102.344 60.3865 103.096C61.3227 103.84 61.7907 104.972 61.7907 106.49C61.7907 108.607 60.7239 110.037 58.5904 110.782L62.912 117.975H60.7239L56.8704 111.318H53.5503V117.975H51.6998V101.968ZM53.5503 103.599V109.72H56.0867C57.3857 109.72 58.34 109.461 58.9496 108.942C59.5664 108.424 59.8749 107.64 59.8749 106.588C59.8749 105.537 59.5628 104.778 58.9387 104.311C58.3218 103.837 57.3276 103.599 55.956 103.599H53.5503Z" fill="white"/>
<path d="M72.2283 109.961C72.2283 107.34 72.8669 105.311 74.1442 103.873C75.4214 102.435 77.2176 101.716 79.5326 101.716C81.8548 101.716 83.6582 102.446 84.9427 103.906C86.2272 105.366 86.8695 107.38 86.8695 109.95C86.8695 112.519 86.2236 114.537 84.9318 116.004C83.6473 117.464 81.8439 118.194 79.5217 118.194C77.2067 118.194 75.4105 117.475 74.1333 116.037C72.8633 114.599 72.2283 112.574 72.2283 109.961ZM84.9101 109.972C84.9101 107.804 84.4601 106.165 83.5602 105.056C82.6676 103.939 81.3396 103.381 79.5761 103.381C77.8199 103.381 76.481 103.943 75.5593 105.067C74.6449 106.183 74.1877 107.818 74.1877 109.972C74.1877 112.118 74.6449 113.753 75.5593 114.877C76.481 116.001 77.8199 116.563 79.5761 116.563C81.3323 116.563 82.6604 116.004 83.5602 114.888C84.4601 113.771 84.9101 112.132 84.9101 109.972Z" fill="white"/>
<path d="M103.752 117.975H101.64L92.9428 104.541H92.8557C92.9718 106.067 93.0299 107.512 93.0299 108.877V117.975H91.3208V101.968H93.4109L102.087 115.347H102.174L102.076 113.453C102.04 112.694 102.021 112.154 102.021 111.833C102.021 111.504 102.021 111.278 102.021 111.154V101.968H103.752V117.975Z" fill="white"/>
<path d="M117.892 103.621H110.871V108.778H117.456V110.421H110.871V116.311H117.892V117.975H109.02V101.968H117.892V103.621Z" fill="white"/>
<path d="M126.393 112.796H121.048V111.132H126.393V112.796Z" fill="white"/>
<path d="M133.783 116.563C135.002 116.563 135.928 116.329 136.559 115.862C137.19 115.395 137.506 114.738 137.506 113.891C137.506 113.344 137.393 112.891 137.168 112.534C136.951 112.176 136.584 111.851 136.069 111.559C135.561 111.26 134.77 110.917 133.696 110.53C132.208 109.99 131.149 109.355 130.517 108.625C129.886 107.895 129.57 106.932 129.57 105.734C129.57 104.53 130.031 103.563 130.953 102.833C131.874 102.103 133.108 101.738 134.654 101.738C136.2 101.738 137.637 102.03 138.965 102.614L138.399 104.235C137.092 103.68 135.815 103.402 134.567 103.402C133.587 103.402 132.821 103.614 132.27 104.037C131.718 104.461 131.443 105.048 131.443 105.8C131.443 106.348 131.544 106.8 131.747 107.158C131.951 107.515 132.284 107.84 132.749 108.132C133.221 108.417 133.968 108.745 134.991 109.118C136.675 109.731 137.825 110.38 138.442 111.066C139.066 111.753 139.378 112.636 139.378 113.716C139.378 115.11 138.87 116.209 137.854 117.012C136.838 117.8 135.42 118.194 133.598 118.194C131.776 118.194 130.365 117.95 129.363 117.461V115.665C130.764 116.263 132.237 116.563 133.783 116.563Z" fill="white"/>
<path d="M153.463 103.621H148.423V117.975H146.573V103.621H141.533V101.968H153.463V103.621Z" fill="white"/>
<path d="M155.934 109.961C155.934 107.34 156.572 105.311 157.849 103.873C159.127 102.435 160.923 101.716 163.238 101.716C165.56 101.716 167.363 102.446 168.648 103.906C169.932 105.366 170.575 107.38 170.575 109.95C170.575 112.519 169.929 114.537 168.637 116.004C167.353 117.464 165.549 118.194 163.227 118.194C160.912 118.194 159.116 117.475 157.839 116.037C156.569 114.599 155.934 112.574 155.934 109.961ZM168.615 109.972C168.615 107.804 168.165 106.165 167.265 105.056C166.373 103.939 165.045 103.381 163.281 103.381C161.525 103.381 160.186 103.943 159.265 105.067C158.35 106.183 157.893 107.818 157.893 109.972C157.893 112.118 158.35 113.753 159.265 114.877C160.186 116.001 161.525 116.563 163.281 116.563C165.038 116.563 166.366 116.004 167.265 114.888C168.165 113.771 168.615 112.132 168.615 109.972Z" fill="white"/>
<path d="M175.026 101.968H179.152C183.129 101.968 185.117 103.523 185.117 106.632C185.117 108.253 184.566 109.501 183.462 110.377C182.367 111.245 180.795 111.68 178.749 111.68H176.877V117.975H175.026V101.968ZM176.877 103.578V110.081H178.542C180.189 110.081 181.376 109.815 182.102 109.282C182.835 108.742 183.201 107.917 183.201 106.807C183.201 105.691 182.853 104.873 182.156 104.355C181.467 103.837 180.396 103.578 178.945 103.578H176.877Z" fill="white"/>
<path d="M207.953 117.975H206.037L204.056 112.884H197.677L195.718 117.975H193.846L200.137 101.902H201.694L207.953 117.975ZM203.479 111.209L201.629 106.249C201.382 105.607 201.135 104.837 200.889 103.939C200.729 104.625 200.5 105.395 200.203 106.249L198.33 111.209H203.479Z" fill="white"/>
<path d="M211.033 101.968H215.91C218.385 101.968 220.308 102.658 221.679 104.037C223.051 105.417 223.737 107.344 223.737 109.818C223.737 112.461 223.022 114.482 221.592 115.884C220.163 117.278 218.112 117.975 215.442 117.975H211.033V101.968ZM212.884 103.578V116.366H215.137C217.336 116.366 218.991 115.822 220.101 114.734C221.218 113.639 221.777 112.037 221.777 109.928C221.777 107.811 221.255 106.224 220.21 105.165C219.165 104.107 217.619 103.578 215.572 103.578H212.884Z" fill="white"/>
<path d="M233.533 117.975H231.704L226 101.968H227.959L231.617 112.326C232.023 113.479 232.357 114.636 232.618 115.796C232.887 114.577 233.228 113.399 233.642 112.26L237.277 101.968H239.27L233.533 117.975Z" fill="white"/>
<path d="M254.28 117.975H252.364L250.383 112.884H244.004L242.045 117.975H240.172L246.464 101.902H248.021L254.28 117.975ZM249.806 111.209L247.955 106.249C247.709 105.607 247.462 104.837 247.215 103.939C247.056 104.625 246.827 105.395 246.529 106.249L244.657 111.209H249.806Z" fill="white"/>
<path d="M269.791 117.975H267.679L258.982 104.541H258.895C259.011 106.067 259.069 107.512 259.069 108.877V117.975H257.36V101.968H259.45L268.126 115.347H268.213L268.115 113.453C268.078 112.694 268.06 112.154 268.06 111.833C268.06 111.504 268.06 111.278 268.06 111.154V101.968H269.791V117.975Z" fill="white"/>
<path d="M281.558 118.194C279.206 118.194 277.396 117.479 276.126 116.048C274.856 114.618 274.221 112.585 274.221 109.95C274.221 109.913 274.221 109.877 274.221 109.84C274.221 108.249 274.525 106.837 275.135 105.603C275.752 104.37 276.637 103.417 277.791 102.745C278.952 102.074 280.284 101.738 281.786 101.738C281.822 101.738 281.855 101.738 281.884 101.738C283.546 101.738 285.005 102.045 286.26 102.658L285.476 104.256C284.264 103.687 283.06 103.402 281.862 103.402C280.113 103.402 278.731 103.99 277.715 105.165C276.706 106.333 276.202 107.95 276.202 110.015C276.202 112.074 276.688 113.68 277.661 114.833C278.64 115.972 280.034 116.541 281.841 116.541C282.958 116.541 284.225 116.34 285.64 115.939V117.57C284.508 117.986 283.147 118.194 281.558 118.194Z" fill="white"/>
<path d="M298.887 103.621H291.865V108.778H298.451V110.421H291.865V116.311H298.887V117.975H290.015V101.968H298.887V103.621Z" fill="white"/>
<path d="M303.316 101.968H308.193C310.668 101.968 312.591 102.658 313.962 104.037C315.334 105.417 316.02 107.344 316.02 109.818C316.02 112.461 315.305 114.482 313.875 115.884C312.446 117.278 310.396 117.975 307.725 117.975H303.316V101.968ZM305.167 103.578V116.366H307.42C309.619 116.366 311.274 115.822 312.384 114.734C313.502 113.639 314.06 112.037 314.06 109.928C314.06 107.811 313.538 106.224 312.493 105.165C311.448 104.107 309.902 103.578 307.856 103.578H305.167Z" fill="white"/>
<path d="M339.237 117.975H337.387V110.442H329.005V117.975H327.154V101.968H329.005V108.778H337.387V101.968H339.237V117.975Z" fill="white"/>
<path d="M353.377 103.621H346.355V108.778H352.941V110.421H346.355V116.311H353.377V117.975H344.505V101.968H353.377V103.621Z" fill="white"/>
<path d="M369.726 117.975H367.81L365.829 112.884H359.45L357.491 117.975H355.618L361.91 101.902H363.467L369.726 117.975ZM365.252 111.209L363.401 106.249C363.155 105.607 362.908 104.837 362.661 103.939C362.502 104.625 362.273 105.395 361.975 106.249L360.103 111.209H365.252Z" fill="white"/>
<path d="M374.656 116.289H381.678V117.975H372.806V101.968H374.656V116.289Z" fill="white"/>
<path d="M395.218 103.621H390.178V117.975H388.328V103.621H383.288V101.968H395.218V103.621Z" fill="white"/>
<path d="M410.599 117.975H408.748V110.442H400.366V117.975H398.516V101.968H400.366V108.778H408.748V101.968H410.599V117.975Z" fill="white"/>
<path d="M429.048 118.194C426.697 118.194 424.886 117.479 423.616 116.048C422.346 114.618 421.711 112.585 421.711 109.95C421.711 109.913 421.711 109.877 421.711 109.84C421.711 108.249 422.016 106.837 422.626 105.603C423.243 104.37 424.128 103.417 425.282 102.745C426.443 102.074 427.775 101.738 429.277 101.738C429.313 101.738 429.346 101.738 429.375 101.738C431.037 101.738 432.495 102.045 433.751 102.658L432.967 104.256C431.755 103.687 430.55 103.402 429.353 103.402C427.604 103.402 426.222 103.99 425.206 105.165C424.197 106.333 423.693 107.95 423.693 110.015C423.693 112.074 424.179 113.68 425.151 114.833C426.131 115.972 427.524 116.541 429.331 116.541C430.449 116.541 431.715 116.34 433.13 115.939V117.57C431.998 117.986 430.638 118.194 429.048 118.194Z" fill="white"/>
<path d="M449.589 117.975H447.738V110.442H439.356V117.975H437.506V101.968H439.356V108.778H447.738V101.968H449.589V117.975Z" fill="white"/>
<path d="M463.728 103.621H456.707V108.778H463.293V110.421H456.707V116.311H463.728V117.975H454.856V101.968H463.728V103.621Z" fill="white"/>
<path d="M474.656 118.194C472.305 118.194 470.495 117.479 469.225 116.048C467.955 114.618 467.32 112.585 467.32 109.95C467.32 109.913 467.32 109.877 467.32 109.84C467.32 108.249 467.624 106.837 468.234 105.603C468.851 104.37 469.736 103.417 470.89 102.745C472.051 102.074 473.383 101.738 474.885 101.738C474.921 101.738 474.954 101.738 474.983 101.738C476.645 101.738 478.104 102.045 479.359 102.658L478.575 104.256C477.363 103.687 476.159 103.402 474.961 103.402C473.212 103.402 471.83 103.99 470.814 105.165C469.805 106.333 469.301 107.95 469.301 110.015C469.301 112.074 469.787 113.68 470.759 114.833C471.739 115.972 473.132 116.541 474.939 116.541C476.057 116.541 477.323 116.34 478.739 115.939V117.57C477.606 117.986 476.246 118.194 474.656 118.194Z" fill="white"/>
<path d="M484.964 117.975H483.114V101.968H484.964V109.906L492.181 101.968H494.369L487.969 108.921L494.609 117.975H492.432L486.63 110.212L484.964 111.702V117.975Z" fill="white"/>
<path d="M501.771 112.796H496.426V111.132H501.771V112.796Z" fill="white"/>
<path d="M517.794 101.968V112.326C517.794 114.158 517.242 115.596 516.139 116.639C515.043 117.676 513.541 118.194 511.632 118.194C509.724 118.194 508.24 117.669 507.18 116.617C506.135 115.566 505.613 114.121 505.613 112.282V101.968H507.463V112.413C507.463 113.756 507.826 114.785 508.552 115.501C509.285 116.209 510.337 116.563 511.708 116.563C513.08 116.563 514.129 116.201 514.854 115.479C515.58 114.756 515.943 113.727 515.943 112.391V101.968H517.794Z" fill="white"/>
<path d="M522.909 101.968H527.035C531.011 101.968 533 103.523 533 106.632C533 108.253 532.448 109.501 531.345 110.377C530.25 111.245 528.678 111.68 526.632 111.68H524.76V117.975H522.909V101.968ZM524.76 103.578V110.081H526.425C528.072 110.081 529.259 109.815 529.985 109.282C530.718 108.742 531.084 107.917 531.084 106.807C531.084 105.691 530.736 104.873 530.039 104.355C529.35 103.837 528.279 103.578 526.828 103.578H524.76Z" fill="white"/>
<path d="M487.897 59.9725V59.5508L488.972 46.4509L489.123 44.6724H484.802L484.707 46.2217C484.571 50.4863 483.176 54.6235 480.688 58.1391C478.515 61.222 475.457 63.6156 471.894 65.0237C467.829 66.5033 463.515 67.2275 459.174 67.1596C454.756 67.2541 450.395 66.176 446.559 64.0428C443.003 62.0003 440.149 58.9788 438.359 55.3614C436.367 51.0877 435.398 46.4298 435.529 41.7389C435.529 33.6168 437.708 27.4197 441.879 22.9553C446.049 18.4909 451.711 16.2266 459.127 16.2266C465.628 16.2266 470.658 17.5558 474.356 20.0493C478.055 22.5428 480.565 26.2647 481.905 31.4258L482.226 32.6817H486.415L486.113 30.7749L483.849 17.2166L483.726 16.4557L483.056 16.0615C479.572 14.0619 475.8 12.5788 471.865 11.6613C467.72 10.6188 463.456 10.083 459.174 10.0662C448.795 10.0662 440.426 12.8164 434.189 18.5459C428.009 24.2662 424.999 32.0675 424.999 41.7298C424.999 51.392 428.009 59.1016 434.189 64.822L435.359 63.6211L434.151 64.8862C440.379 70.5973 448.776 73.4025 459.127 73.4667C464.87 73.5235 470.557 72.3629 475.791 70.0656C480.608 67.9636 484.714 64.5791 487.632 60.3026L487.897 59.9725ZM495.322 68.1589L495.719 68.498C498.069 70.3516 500.847 71.6259 503.814 72.2108C507.114 73.0083 510.501 73.4144 513.901 73.4208C518.867 73.5327 523.684 71.768 527.337 68.498C529.139 66.9855 530.579 65.1089 531.556 63.0005C532.535 60.8911 533.026 58.6002 532.999 56.2873C532.999 51.5387 531.319 47.661 527.856 44.8741L508.042 29.9774C505.805 28.1898 504.833 26.2372 504.833 24.0829C504.802 23.0104 505.044 21.947 505.538 20.9874C506.032 20.0277 506.762 19.2017 507.664 18.5825C509.879 16.964 512.605 16.144 515.373 16.2632C518.704 16.2632 520.987 16.9599 522.488 18.0967C523.234 18.6862 523.824 19.4409 524.208 20.2973C524.592 21.1538 524.759 22.0872 524.695 23.0195V24.6696H529.206V22.992L529.008 12.5688V10.9462H524.29C521.259 10.3488 518.173 10.063 515.081 10.0937C511.717 10.028 508.385 10.7413 505.362 12.1746C502.722 13.4173 500.467 15.3146 498.823 17.675C497.284 19.9907 496.474 22.6924 496.492 25.4488C496.409 27.6727 496.843 29.8862 497.763 31.9242C498.683 33.9624 500.065 35.772 501.805 37.2195L521.412 51.887C522.351 52.7139 523.087 53.7342 523.566 54.8728C524.046 56.0114 524.258 57.2407 524.186 58.4691C524.217 59.6709 523.96 60.8645 523.437 61.9536C522.912 63.0435 522.136 64.0006 521.167 64.7486C519.138 66.3437 516.194 67.2421 512.108 67.2421C508.334 67.2421 505.503 66.2521 503.55 64.492C502.568 63.5312 501.801 62.3844 501.296 61.1221C500.791 59.8607 500.559 58.5113 500.616 57.1582C500.616 56.6439 500.644 56.1296 500.701 55.6181L500.908 53.7847H496.615L496.228 54.903C495.337 57.3791 494.875 59.9808 494.86 62.6035C494.795 64.3059 494.909 66.011 495.2 67.6913L495.322 68.1589ZM368.649 67.3705C368.045 67.1211 367.531 66.7049 367.168 66.1732C366.806 65.6424 366.612 65.0191 366.611 64.382V17.4733H382.746C383.175 17.4535 383.603 17.5254 384.002 17.6837C384.399 17.8421 384.756 18.0832 385.048 18.39C385.356 18.6967 385.597 19.0597 385.759 19.4578C385.921 19.8559 386 20.2813 385.992 20.7093V23.8903H390.474V8.96611L388.143 9.88284C385.812 10.7996 382.387 11.2946 377.764 11.2946H345.682C344.597 11.2946 342.852 11.1754 340.446 10.9279C338.722 10.7872 337.023 10.4361 335.388 9.88284L333.058 8.96611V23.8628H337.455V20.7002C337.427 19.8453 337.73 19.0116 338.304 18.3625C338.609 18.0519 338.979 17.8092 339.389 17.6509C339.799 17.4926 340.241 17.4227 340.682 17.4458H356.807V64.1986C356.785 64.6762 356.662 65.1438 356.448 65.5737C356.233 66.0036 355.932 66.3877 355.562 66.7013C354.8 67.4081 353.784 67.7967 352.731 67.783H349.9V72.0366H373.574V67.783H370.791C370.054 67.8215 369.319 67.673 368.658 67.3521L368.649 67.3705ZM66.18 66.6096C65.7743 67.0157 65.2864 67.3356 64.7477 67.5483C64.208 67.761 63.6296 67.8628 63.0474 67.8472H60.0468V72.1008H95.1474C106.017 72.1008 114.962 68.9197 121.822 62.4477C128.757 55.9115 132.201 47.3676 132.201 36.9811C132.201 26.5947 128.785 18.0783 121.822 11.6063C114.962 5.08838 106.017 1.87069 95.1474 1.87069H59.9053L60.094 3.70413L60.1884 4.62085L60.3393 6.10595H63.0568C64.2438 6.09366 65.3893 6.52718 66.2555 7.31602C66.6895 7.59773 67.0453 7.97963 67.2906 8.42754C67.5359 8.87545 67.6633 9.37543 67.6614 9.88284V63.3827C67.6454 63.985 67.5067 64.5791 67.2547 65.1291C67.0019 65.68 66.6395 66.1769 66.1895 66.5913L66.18 66.6096ZM77.4556 8.04939H95.1474C103.045 8.04939 109.301 10.6804 114.019 15.9149C118.869 21.1677 121.36 28.1348 121.36 36.9995C121.47 42.2954 120.317 47.5454 117.991 52.3362C115.987 56.4762 112.787 59.9606 108.782 62.3652C104.669 64.8 99.9247 66.0403 95.1097 65.9404H77.4556V8.04939ZM210.206 11.4504H188.211V15.704H191.58C192.054 15.6936 192.527 15.775 192.969 15.9434C193.411 16.1118 193.815 16.3638 194.156 16.6849C194.496 16.9592 194.776 17.2967 194.98 17.6777C195.184 18.0586 195.309 18.4754 195.344 18.9034V54.6555L147.119 10.5154L146.694 10.1212L146.109 10.0662L145.024 9.97451L142.93 9.79117L143.194 11.8171L143.392 13.348C143.866 16.723 144.089 20.1267 144.062 23.5328V64.4645C144.075 64.9045 143.988 65.3409 143.809 65.7451C143.63 66.1485 143.362 66.5097 143.024 66.8021C142.299 67.4622 141.337 67.8178 140.344 67.7922H136.976V72.0458H159.027V67.7922H155.649C154.656 67.8178 153.694 67.4622 152.969 66.8021C152.633 66.5078 152.366 66.1467 152.187 65.7433C152.008 65.3399 151.921 64.9036 151.931 64.4645V28.4556L200.26 72.9625L200.751 73.4208H204.205L203.997 71.5874L203.799 69.864C203.334 66.451 203.107 63.0115 203.119 59.5692V18.8484C203.135 18.4331 203.239 18.0256 203.428 17.6528C203.617 17.2799 203.885 16.95 204.214 16.6849C204.556 16.3646 204.959 16.1132 205.401 15.9448C205.844 15.7764 206.315 15.6947 206.79 15.704H210.158L210.206 11.4504ZM329.595 56.324C329.595 51.5754 327.915 47.6976 324.452 44.9108L304.637 30.014C302.401 28.2264 301.429 26.2738 301.429 24.1195C301.393 23.0511 301.628 21.9904 302.113 21.0311C302.598 20.0717 303.319 19.2434 304.213 18.6192C306.425 17.002 309.147 16.1821 311.912 16.2999C315.243 16.2999 317.574 16.9966 319.036 18.1333C319.783 18.7229 320.372 19.4775 320.756 20.334C321.14 21.1905 321.307 22.1239 321.244 23.0561V24.7062H325.754V23.0286L325.566 12.6055V10.9829H320.848C317.817 10.3855 314.731 10.0996 311.639 10.1304C308.275 10.0636 304.943 10.777 301.92 12.2113C299.28 13.454 297.025 15.3513 295.381 17.7116C293.766 19.9981 292.877 22.6946 292.824 25.4671C292.741 27.6919 293.176 29.9062 294.097 31.9446C295.019 33.9825 296.403 35.7922 298.146 37.2378L317.762 51.9054C318.722 52.7066 319.485 53.7058 319.996 54.8306C320.507 55.9545 320.753 57.1765 320.716 58.4049C320.747 59.6068 320.49 60.8003 319.967 61.8894C319.442 62.9794 318.665 63.9364 317.696 64.6845C315.668 66.2796 312.714 67.178 308.638 67.178C304.864 67.178 302.033 66.1879 300.08 64.4278C299.098 63.4671 298.331 62.3202 297.826 61.0579C297.321 59.7965 297.089 58.4471 297.146 57.094C297.146 56.5797 297.174 56.0655 297.23 55.5539L297.438 53.7205H293.145L292.758 54.8389C291.86 57.3131 291.395 59.9157 291.38 62.5393C291.317 64.2426 291.434 65.9477 291.73 67.6272L291.862 68.1222L292.249 68.4614C294.605 70.3132 297.384 71.5865 300.354 72.1741C303.641 72.9661 307.015 73.3686 310.403 73.375C315.371 73.4887 320.192 71.724 323.848 68.4522C325.659 66.9506 327.11 65.0832 328.103 62.9803C329.096 60.8782 329.604 58.591 329.595 56.2781V56.324ZM419.46 69.3598L419.309 67.8747H416.478C415.2 67.8783 413.956 67.4731 412.94 66.7196C412.537 66.4473 412.202 66.0916 411.959 65.6773C411.716 65.2638 411.571 64.8018 411.534 64.327V19.0959C411.583 18.63 411.734 18.1797 411.976 17.7751C412.219 17.3703 412.547 17.0205 412.94 16.7491C413.978 16.0092 415.238 15.6255 416.525 15.6582H419.507V11.4046H393.823V15.6582H396.805C398.128 15.6186 399.423 16.0305 400.466 16.8224C400.865 17.0818 401.193 17.4302 401.425 17.8385C401.657 18.2468 401.784 18.7032 401.796 19.1692V64.3086C401.785 64.7752 401.658 65.2318 401.426 65.6397C401.194 66.0486 400.865 66.3969 400.466 66.6554C399.456 67.4429 398.193 67.8582 396.899 67.8288H393.823V72.0824H419.743L419.554 70.249L419.46 69.3598ZM218.99 53.8855L217.433 54.5547C219.195 58.3783 221.744 61.8106 224.925 64.6386C228.203 67.4374 231.993 69.6137 236.097 71.0557C240.806 72.659 245.77 73.4382 250.76 73.3567C256.445 73.3347 262.041 71.9926 267.084 69.4423C272.28 66.8617 276.656 62.9574 279.746 58.1482C282.874 53.1943 284.529 47.4959 284.529 41.6839C284.529 35.8719 282.874 30.1737 279.746 25.2196C276.67 20.424 272.287 16.5497 267.084 14.0264C261.663 11.3965 255.686 10.0275 249.628 10.0275C243.569 10.0275 237.593 11.3965 232.172 14.0264C226.951 16.5606 222.54 20.4306 219.415 25.2196C216.364 29.8149 214.727 35.1614 214.697 40.6297C214.596 45.3856 215.518 50.1104 217.405 54.4997L218.99 53.8855ZM232.323 23.3678C234.56 21.1092 237.242 19.3124 240.212 18.0851C243.18 16.8578 246.373 16.2252 249.599 16.2252C252.825 16.2252 256.018 16.8578 258.987 18.0851C261.956 19.3124 264.639 21.1092 266.876 23.3678C271.509 28.0523 273.877 34.121 273.877 41.7023C273.877 49.2836 271.509 55.4531 266.867 60.165C264.613 62.3963 261.925 64.1684 258.959 65.3784C255.992 66.5885 252.808 67.2119 249.59 67.2119C246.372 67.2119 243.188 66.5885 240.221 65.3784C237.255 64.1684 234.567 62.3963 232.313 60.165C227.737 55.4164 225.397 49.3019 225.397 41.6931C225.397 34.0843 227.746 28.0523 232.323 23.3678ZM31.3436 64.437C31.3304 64.8917 31.2219 65.339 31.0257 65.7515C30.8294 66.1641 30.5491 66.5344 30.2019 66.8388C29.4772 67.4988 28.5148 67.8545 27.5222 67.8288H25.0029L24.8519 69.3139L24.7576 70.2307L24.5688 72.0641H47.6295V67.8105H44.7988C43.8175 67.8398 42.8645 67.4896 42.1474 66.8388C41.8266 66.517 41.5756 66.1366 41.4086 65.7195C41.2416 65.3023 41.1624 64.8568 41.1756 64.4095V48.266H49.2902L49.6299 47.0651L51.6963 39.8871L52.3002 37.797H48.29L47.7805 38.3929C47.4399 38.8402 46.9926 39.2014 46.4784 39.4471H46.4218C46.1632 39.5342 45.8934 39.5865 45.6197 39.603C44.9706 39.669 44.3186 39.7001 43.6666 39.6946H41.1756V0.495605H37.6844L37.1749 1.10981L1.1024 44.6266L2.42338 45.635L1.1024 44.5991L0.724976 45.0483V48.2385H31.3436V64.437ZM13.3593 39.6855L31.3436 18.1333V39.7496L13.3593 39.6855Z" fill="white"/>
</svg>
