<svg width="198" height="231" viewBox="0 0 198 231" fill="none" xmlns="http://www.w3.org/2000/svg">
<path fill-rule="evenodd" clip-rule="evenodd" d="M192.056 163.831L191.957 60.0972L191.796 59.9962V58.4619L190.497 59.2336L104.109 7.96828C104.404 7.06692 104.487 6.10693 104.353 5.16629C104.218 4.22564 103.869 3.33087 103.333 2.55463C102.797 1.77839 102.091 1.14258 101.271 0.698839C100.452 0.255096 99.5403 0.0159304 98.6138 0.000768841C97.6864 -0.0143927 96.7689 0.194876 95.9356 0.611581C95.1022 1.02828 94.3764 1.64067 93.8164 2.39901C93.2573 3.15735 92.8809 4.04024 92.717 4.976C92.5521 5.91176 92.6059 6.87399 92.8729 7.78453L10.2937 56.7806C9.72542 56.1281 9.02579 55.6099 8.24307 55.2616C7.46038 54.9133 6.61329 54.7434 5.76031 54.7635C4.90734 54.7836 4.06878 54.9933 3.30254 55.3782C2.53631 55.7629 1.86065 56.3136 1.32223 56.9923C0.783816 57.6709 0.395463 58.4612 0.183984 59.3088C-0.027496 60.1563 -0.0570555 61.0408 0.0973414 61.9012C0.251737 62.7615 0.586415 63.5773 1.07826 64.2921C1.57011 65.0069 2.2074 65.6038 2.94614 66.0414C3.4497 66.3325 3.99357 66.5432 4.55902 66.6662L4.63966 141.782V163.785C3.7422 163.994 2.90461 164.414 2.19372 165.013C1.48283 165.612 0.918303 166.374 0.545197 167.235C0.172091 168.098 0.000721268 169.038 0.0447563 169.98C0.0887923 170.923 0.347012 171.842 0.798825 172.663C1.25064 173.485 1.88353 174.187 2.64702 174.715C3.41051 175.241 4.28347 175.577 5.19625 175.697C6.10902 175.816 7.03634 175.715 7.90426 175.401C8.77221 175.088 9.5567 174.571 10.1951 173.892L92.5862 222.777C92.3935 223.606 92.3738 224.466 92.5279 225.303C92.682 226.14 93.0064 226.934 93.4795 227.634C93.9535 228.333 94.5655 228.922 95.2761 229.363C95.9866 229.803 96.7805 230.085 97.6049 230.19C98.4283 230.294 99.2652 230.219 100.059 229.97C100.853 229.72 101.587 229.302 102.213 228.743C102.839 228.182 103.342 227.493 103.691 226.721C104.038 225.948 104.224 225.108 104.235 224.257C104.225 223.728 104.15 223.204 104.011 222.695L186.366 173.827C186.99 174.517 187.763 175.047 188.623 175.377C189.482 175.706 190.405 175.825 191.317 175.724C192.23 175.624 193.107 175.306 193.878 174.797C194.65 174.287 195.295 173.6 195.762 172.791C196.229 171.981 196.505 171.07 196.568 170.131C196.632 169.192 196.48 168.251 196.126 167.383C195.773 166.515 195.227 165.743 194.531 165.13C193.834 164.517 193.009 164.079 192.118 163.85L192.056 163.831ZM191.545 163.73C191.249 163.671 190.95 163.637 190.649 163.629C190.956 163.636 191.262 163.67 191.563 163.73H191.545ZM190.649 163.629C190.327 163.635 190.006 163.669 189.69 163.73C190.012 163.667 190.339 163.633 190.667 163.629H190.649ZM102.855 10.0997L188.059 60.6301L154.7 80.4656C154.325 80.1287 153.883 79.8794 153.406 79.7353C152.927 79.591 152.425 79.5553 151.932 79.6304C151.439 79.7057 150.968 79.89 150.551 80.1706C150.135 80.4513 149.783 80.8216 149.521 81.2557L101.654 52.9862C101.662 52.8455 101.662 52.7044 101.654 52.5636C101.653 51.899 101.47 51.248 101.126 50.6845C100.783 50.121 100.292 49.6676 99.7097 49.3756V11.9648C100.338 11.8436 100.943 11.6203 101.502 11.3033C102.01 10.9744 102.466 10.5687 102.855 10.0997ZM98.2312 218.174C97.9095 218.182 97.5896 218.213 97.2724 218.266C97.5887 218.208 97.9095 218.177 98.2312 218.174ZM47.1568 148.213C47.3654 147.336 47.2336 146.41 46.7895 145.631C46.3509 144.853 45.6397 144.274 44.8003 144.014L44.7375 86.6119C45.419 86.4581 46.0418 86.1036 46.5296 85.5921L92.6937 112.86C92.4822 113.471 92.3702 114.113 92.3621 114.762C92.3648 116.369 92.9885 117.908 94.0978 119.044C95.2062 120.179 96.7088 120.816 98.276 120.816C97.9965 120.807 97.7187 120.78 97.4427 120.734L97.3889 174.333C97.0592 174.406 96.742 174.53 96.4481 174.7C95.7546 175.116 95.2232 175.766 94.9427 176.537L47.1568 148.213ZM98.2223 56.1191C98.8979 56.1179 99.5591 55.9148 100.124 55.5346C100.688 55.1543 101.133 54.6137 101.403 53.9785L149.126 82.1652C149.031 82.4837 148.979 82.8148 148.974 83.1483C148.979 83.4787 149.031 83.8067 149.126 84.1221L103.168 111.39C102.589 110.503 101.789 109.789 100.853 109.321C99.9167 108.853 98.8764 108.648 97.8379 108.727C96.7984 108.805 95.7985 109.164 94.9392 109.768C94.0798 110.371 93.3917 111.197 92.9446 112.162C93.0494 111.923 93.1722 111.692 93.3119 111.473L47.3002 84.1772C47.5095 83.5238 47.5095 82.8187 47.3002 82.1652L95.0323 53.9785C95.3003 54.6173 95.7456 55.161 96.3128 55.5417C96.88 55.9224 97.5439 56.1232 98.2223 56.1191ZM101.753 114.771C101.753 115.479 101.547 116.172 101.164 116.762C100.78 117.351 100.234 117.81 99.595 118.081C98.957 118.352 98.2545 118.424 97.5762 118.285C96.8988 118.147 96.2761 117.806 95.7868 117.305C95.2985 116.803 94.9651 116.165 94.8307 115.47C94.6954 114.775 94.7653 114.054 95.0297 113.4C95.294 112.745 95.742 112.186 96.3164 111.792C96.8916 111.398 97.5673 111.188 98.2581 111.188C99.1846 111.191 100.072 111.568 100.727 112.24C101.382 112.911 101.75 113.822 101.753 114.771ZM101.17 176.014C100.935 175.598 100.62 175.235 100.245 174.947C99.8692 174.66 99.44 174.454 98.9839 174.342L98.9301 120.761L98.4821 120.807C100.008 120.753 101.454 120.092 102.515 118.967C103.577 117.841 104.17 116.337 104.172 114.771C104.165 114.11 104.049 113.454 103.831 112.832L149.942 85.6013C150.385 86.0826 150.954 86.4237 151.582 86.5843L151.528 144.023C150.685 144.281 149.97 144.86 149.53 145.64C149.093 146.422 148.962 147.345 149.162 148.222L101.403 176.556C101.342 176.368 101.264 176.186 101.17 176.014ZM96.7707 2.98874C97.3683 2.6336 98.0565 2.46827 98.7455 2.51365C99.4355 2.55903 100.097 2.81309 100.645 3.2437C101.194 3.67431 101.607 4.26214 101.83 4.93284C102.053 5.60355 102.077 6.32702 101.899 7.01177C101.721 7.69652 101.349 8.3118 100.83 8.77981C100.311 9.24779 99.6685 9.54757 98.983 9.6411C98.2984 9.73463 97.6013 9.61777 96.9812 9.3053C96.3612 8.99281 95.8451 8.49876 95.4983 7.88559C95.2626 7.47688 95.1085 7.02419 95.0449 6.55386C94.9813 6.08353 95.009 5.60493 95.1282 5.14587C95.2465 4.68683 95.4526 4.25648 95.7348 3.87985C96.0162 3.50322 96.3683 3.18783 96.7707 2.95199V2.98874ZM93.4015 9.08914C94.1865 10.4759 95.475 11.4868 96.9857 11.9005V49.2654C96.3388 49.5255 95.7841 49.9793 95.3926 50.5676C95.001 51.1558 94.7913 51.8514 94.7904 52.5636C94.7967 52.7053 94.8119 52.8464 94.8352 52.9862L46.9328 81.2557C46.6217 80.7468 46.1897 80.3272 45.6772 80.0363C45.1647 79.7455 44.5885 79.5928 44.0028 79.5928C43.1535 79.5966 42.3359 79.9241 41.7089 80.5115L11.5302 62.5962C11.904 61.4012 11.904 60.1162 11.5302 58.9212L94.0467 9.96192C93.8066 9.69126 93.5906 9.3992 93.4015 9.08914ZM2.87446 58.9856C3.21902 58.3708 3.73373 57.8747 4.35341 57.5601C4.9731 57.2454 5.6699 57.1263 6.35564 57.2179C7.04136 57.3094 7.68515 57.6076 8.20557 58.0745C8.72597 58.5414 9.09954 59.1561 9.27911 59.8408C9.45858 60.5255 9.43591 61.2495 9.21396 61.921C8.99201 62.5925 8.58073 63.1814 8.03219 63.6131C7.48366 64.0448 6.82254 64.3001 6.13249 64.3464C5.44246 64.3927 4.75453 64.228 4.15581 63.8732C3.35764 63.4003 2.77469 62.6225 2.53455 61.7099C2.29441 60.7973 2.41663 59.8244 2.87446 59.0039V58.9856ZM5.86724 173.258C5.17608 173.258 4.50044 173.047 3.92577 172.654C3.35109 172.26 2.90319 171.7 2.63869 171.046C2.3742 170.391 2.30499 169.671 2.43983 168.975C2.57466 168.281 2.9075 167.642 3.39622 167.141C3.88494 166.64 4.5076 166.299 5.18549 166.16C5.86336 166.023 6.56601 166.093 7.20455 166.364C7.84311 166.635 8.38888 167.095 8.77284 167.684C9.15689 168.273 9.36181 168.966 9.36181 169.675C9.36656 170.624 9.0042 171.535 8.35413 172.21C7.70406 172.885 6.81938 173.269 5.89412 173.276L5.86724 173.258ZM7.05001 163.74V141.763L7.13066 66.6846C8.38137 66.4112 9.5127 65.7314 10.3564 64.746L40.5799 82.6797C40.5 83.1639 40.5227 83.66 40.6467 84.1343C40.7706 84.6087 40.9927 85.0501 41.298 85.4285C41.6033 85.8069 41.9844 86.1134 42.4156 86.3271C42.8468 86.5408 43.3178 86.6567 43.7967 86.667L43.8594 143.858C43.341 143.844 42.8264 143.952 42.3544 144.172C41.8825 144.393 41.4655 144.72 41.1349 145.13C40.8044 145.539 40.569 146.021 40.4465 146.537C40.3239 147.054 40.3174 147.593 40.4276 148.112L10.4729 165.899C9.61862 164.802 8.41753 164.045 7.07689 163.758L7.05001 163.74ZM93.6166 220.49L11.4585 171.797C11.7037 171.136 11.8312 170.436 11.8349 169.73C11.831 169.194 11.7525 168.662 11.6019 168.149L41.7268 150.271C42.2709 150.702 42.9277 150.957 43.6138 151.005C44.2998 151.053 44.9842 150.89 45.5798 150.537C46.1151 150.214 46.5572 149.752 46.8611 149.196L94.7277 177.594C94.6775 178.341 94.8603 179.085 95.2501 179.717C95.6399 180.35 96.2169 180.839 96.8961 181.113L96.9409 218.395C95.6318 218.683 94.4589 219.423 93.6166 220.49ZM98.2581 227.784C97.5673 227.784 96.8916 227.574 96.3164 227.181C95.742 226.787 95.294 226.227 95.0297 225.573C94.7653 224.918 94.6954 224.198 94.8307 223.502C94.9651 222.808 95.2985 222.169 95.7868 221.668C96.2761 221.167 96.8988 220.826 97.5762 220.687C98.2545 220.549 98.957 220.62 99.595 220.891C100.234 221.162 100.78 221.622 101.164 222.21C101.547 222.8 101.753 223.493 101.753 224.201C101.76 224.676 101.675 225.149 101.503 225.59C101.33 226.031 101.073 226.432 100.748 226.771C100.423 227.109 100.036 227.378 99.6075 227.562C99.1801 227.745 98.7214 227.84 98.2581 227.84V227.784ZM102.855 220.49C101.944 219.326 100.644 218.547 99.2079 218.303C99.2885 218.303 99.3692 218.303 99.4498 218.303V181.067C99.5932 181.003 99.7366 180.947 99.871 180.874C100.426 180.542 100.879 180.059 101.181 179.478C101.483 178.897 101.622 178.242 101.582 177.585L149.494 149.159C149.746 149.614 150.092 150.005 150.51 150.305C150.927 150.605 151.404 150.806 151.907 150.895C152.409 150.983 152.925 150.954 153.415 150.814C153.906 150.672 154.36 150.422 154.745 150.078L184.932 167.984C184.56 169.186 184.595 170.48 185.031 171.659L102.855 220.49ZM186.106 165.871L155.963 147.992C156.072 147.285 155.969 146.561 155.667 145.915C155.367 145.269 154.883 144.731 154.279 144.373C153.734 144.054 153.114 143.895 152.487 143.913L152.54 86.7313C153.442 86.7073 154.299 86.3232 154.928 85.6607C155.557 84.9982 155.909 84.1099 155.909 83.185C155.905 83.0153 155.887 82.8463 155.856 82.6797L189.368 62.7983L189.269 163.859C188.029 164.149 186.915 164.846 186.097 165.843L186.106 165.871ZM190.631 173.331C189.94 173.331 189.265 173.121 188.689 172.727C188.115 172.333 187.667 171.774 187.403 171.12C187.138 170.465 187.068 169.744 187.204 169.049C187.338 168.354 187.671 167.716 188.16 167.214C188.649 166.713 189.272 166.373 189.949 166.234C190.627 166.096 191.33 166.167 191.968 166.438C192.607 166.709 193.152 167.168 193.537 167.757C193.92 168.347 194.126 169.04 194.126 169.748C194.111 170.682 193.742 171.574 193.096 172.233C192.45 172.893 191.578 173.267 190.667 173.276L190.631 173.331Z" fill="#FF6600"/>
<path d="M197.548 60.3817C197.548 64.4585 194.291 67.7634 190.274 67.7634C186.257 67.7634 183 64.4585 183 60.3817C183 56.3049 186.257 53 190.274 53C194.291 53 197.548 56.3049 197.548 60.3817Z" fill="#FF6600"/>
</svg>
