<svg width="24" height="24" viewBox="0 0 24 24" fill="none" xmlns="http://www.w3.org/2000/svg">
<path d="M21.5624 3.12155C21.3812 2.96459 21.1607 2.85986 20.9245 2.81858C20.6884 2.77729 20.4455 2.80101 20.2218 2.88718L2.9155 9.68405C2.64997 9.78693 2.42509 9.97337 2.2748 10.2153C2.12452 10.4571 2.05698 10.7413 2.08238 11.025C2.10778 11.3086 2.22474 11.5763 2.41561 11.7876C2.60648 11.999 2.86091 12.1425 3.1405 12.1966L7.68738 13.1059V18.7497C7.68769 19.0083 7.76437 19.261 7.90781 19.4762C8.05125 19.6913 8.25505 19.8593 8.49363 19.9591C8.6545 20.0246 8.82619 20.0596 8.99988 20.0622C9.1724 20.0632 9.34338 20.0298 9.50277 19.9638C9.66216 19.8977 9.80674 19.8005 9.92801 19.6778L12.4874 17.1184L16.3124 20.4841C16.5493 20.6965 16.8567 20.8134 17.1749 20.8122C17.312 20.8133 17.4483 20.7911 17.578 20.7466C17.7945 20.6777 17.989 20.5531 18.1421 20.3853C18.2951 20.2174 18.4013 20.0122 18.4499 19.7903L21.9843 4.40593C22.0371 4.17371 22.0257 3.9315 21.9514 3.70525C21.8771 3.47899 21.7426 3.27722 21.5624 3.12155ZM3.2155 10.9216C3.20895 10.882 3.21667 10.8415 3.23728 10.8071C3.25789 10.7728 3.29005 10.7469 3.328 10.7341L17.8124 5.04343L8.11863 12.0466L3.36551 11.0903C3.32407 11.0857 3.28582 11.0659 3.25813 11.0347C3.23043 11.0035 3.21525 10.9632 3.2155 10.9216ZM9.13113 18.8809C9.10513 18.9082 9.07116 18.9265 9.03411 18.9332C8.99705 18.94 8.95881 18.9348 8.92488 18.9184C8.89192 18.904 8.86379 18.8805 8.84385 18.8506C8.8239 18.8207 8.81298 18.7856 8.81238 18.7497V13.8841L11.6343 16.3778L9.13113 18.8809ZM17.3624 19.5372C17.356 19.5697 17.3411 19.5999 17.3192 19.6248C17.2973 19.6497 17.2692 19.6683 17.2377 19.6788C17.2063 19.6893 17.1726 19.6912 17.1402 19.6845C17.1077 19.6777 17.0776 19.6625 17.053 19.6403L9.14988 12.6841L20.8686 4.2278L17.3624 19.5372Z" fill="#FFE0CC"/>
</svg>
