<svg width="48" height="48" viewBox="0 0 48 48" fill="none" xmlns="http://www.w3.org/2000/svg">
<path d="M23.55 6C20.7 6 13.65 6.3 9.9 9.9C7.2 12.45 6.15 16.35 6 21C5.7 28.35 7.35 33 10.05 35.4C10.65 35.85 12.15 37.05 15 37.95V41.7C15 41.7 15 43.2 15.9 43.5C16.05 43.5 16.2 43.65 16.35 43.65C17.25 43.65 18 42.6 19.05 41.55C19.95 40.5 20.7 39.75 21.15 39H24.45C27.3 39 34.35 38.7 38.1 35.1C40.8 32.4 41.85 28.5 41.85 23.55C42 22.8 42 21.9 42 21C41.85 15.45 40.2 11.7 37.95 9.6C37.05 8.85 33.15 6 24.75 6H23.55ZM23.25 8.85H24.6C32.55 8.85 35.55 11.4 35.85 11.7C37.65 13.2 38.7 16.5 38.85 20.85V21.45C39 22.35 39 23.1 39 23.55C38.85 28.05 37.95 31.05 36.15 33C33 35.85 26.4 36 24.6 36H21.75L19.35 38.7L17.85 40.35L17.55 40.8C17.25 41.1 16.8 41.7 16.5 41.85V35.1C13.5 34.35 12.3 33.3 12 33C9.9 31.2 8.7 26.85 9 21V19.5C9.3 15.9 10.2 13.5 11.7 11.85C14.85 9 21.45 8.85 23.25 8.85ZM23.1 12.15C22.35 12.15 22.35 13.2 23.1 13.2C28.65 13.2 33.45 16.95 33.45 24C33.45 24.75 34.5 24.75 34.5 24C34.5 16.35 29.4 12 23.1 12.15ZM17.1555 13.5375C16.8156 13.4968 16.4733 13.5904 16.2015 13.7985C14.7015 14.5485 13.2 16.0515 13.65 17.7015C13.65 17.7015 13.95 19.05 15.6 21.9C16.5 23.25 17.25 24.45 18 25.35C18.75 26.4 19.95 27.6 21.15 28.5C23.55 30.45 27.3 32.4 28.95 32.85C30.45 33.3 32.1 31.8 32.85 30.3C33.15 29.7 33 28.95 32.4 28.5C31.5 27.6 30 26.55 28.95 25.95C28.2 25.5 27.3 25.8 27 26.25L26.25 27.15C25.95 27.6 25.2 27.6 25.2 27.6C20.25 26.25 18.9 21.15 18.9 21.15C18.9 21.15 18.9 20.55 19.35 20.1L20.25 19.35C20.7 19.05 21 18.15 20.55 17.4C20.25 16.95 19.8 16.05 19.35 15.6C18.9 15 18 13.95 18 13.95C17.7724 13.7221 17.4751 13.5769 17.1555 13.5375ZM24.15 15.15C23.4 15 23.25 16.2 24 16.2C28.2 16.5 30.6 19.35 30.45 22.95C30.3 23.7 31.5 23.7 31.5 22.95C31.65 18.75 28.95 15.3 24.15 15.15ZM24.6 18C23.85 17.85 23.85 19.05 24.6 19.05C26.4 19.05 27.3 20.1 27.3 21.9C27.45 22.65 28.5 22.65 28.5 21.9C28.35 19.5 27 18 24.6 18Z" fill="#252525"/>
</svg>
