<svg width="48" height="48" viewBox="0 0 48 48" fill="none" xmlns="http://www.w3.org/2000/svg">
<path d="M43.1248 6.24408C42.7624 5.93016 42.3214 5.7207 41.8491 5.63813C41.3768 5.55556 40.8909 5.60299 40.4435 5.77533L5.83101 19.3691C5.29993 19.5748 4.85017 19.9477 4.54961 20.4315C4.24904 20.9153 4.11396 21.4837 4.16476 22.0509C4.21556 22.6182 4.44948 23.1536 4.83123 23.5763C5.21297 23.9989 5.72182 24.286 6.28101 24.3941L15.3748 26.2128V37.5003C15.3754 38.0175 15.5287 38.523 15.8156 38.9533C16.1025 39.3836 16.5101 39.7196 16.9873 39.9191C17.309 40.0502 17.6524 40.1201 17.9998 40.1253C18.3448 40.1274 18.6868 40.0605 19.0055 39.9285C19.3243 39.7965 19.6135 39.602 19.856 39.3566L24.9748 34.2378L32.6248 40.9691C33.0986 41.394 33.7133 41.6278 34.3498 41.6253C34.624 41.6276 34.8966 41.5832 35.156 41.4941C35.589 41.3564 35.9781 41.1072 36.2842 40.7715C36.5903 40.4358 36.8026 40.0254 36.8998 39.5816L43.9685 8.81283C44.0742 8.3484 44.0514 7.86398 43.9028 7.41147C43.7542 6.95896 43.4852 6.55542 43.1248 6.24408ZM6.43101 21.8441C6.4179 21.765 6.43333 21.6839 6.47456 21.6152C6.51578 21.5465 6.5801 21.4947 6.65601 21.4691L35.6248 10.0878L16.2373 24.0941L6.73101 22.1816C6.64815 22.1723 6.57165 22.1327 6.51625 22.0704C6.46086 22.0081 6.43049 21.9275 6.43101 21.8441ZM18.2623 37.7628C18.2103 37.8173 18.1423 37.854 18.0682 37.8674C17.9941 37.8809 17.9176 37.8705 17.8498 37.8378C17.7838 37.8091 17.7276 37.762 17.6877 37.7021C17.6478 37.6423 17.626 37.5722 17.6248 37.5003V27.7691L23.2685 32.7566L18.2623 37.7628ZM34.7248 39.0753C34.7119 39.1404 34.6821 39.2008 34.6383 39.2506C34.5945 39.3004 34.5383 39.3376 34.4754 39.3586C34.4125 39.3795 34.3452 39.3835 34.2803 39.3699C34.2154 39.3564 34.1553 39.3259 34.106 39.2816L18.2998 25.3691L41.7373 8.45658L34.7248 39.0753Z" fill="#252525"/>
</svg>
