<svg width="48" height="48" viewBox="0 0 48 48" fill="none" xmlns="http://www.w3.org/2000/svg">
<path d="M43.1857 14.406C42.9579 13.5608 42.5127 12.79 41.8944 12.1704C41.2761 11.5507 40.5064 11.1037 39.6617 10.874C36.5297 10.014 23.9997 10 23.9997 10C23.9997 10 11.4717 9.98601 8.33768 10.808C7.49353 11.0483 6.72533 11.5016 6.10681 12.1243C5.4883 12.747 5.04025 13.5183 4.80568 14.364C3.97968 17.496 3.97168 23.992 3.97168 23.992C3.97168 23.992 3.96368 30.52 4.78368 33.62C5.24368 35.334 6.59368 36.688 8.30968 37.15C11.4737 38.01 23.9697 38.024 23.9697 38.024C23.9697 38.024 36.4997 38.038 39.6317 37.218C40.4767 36.9887 41.2472 36.5428 41.867 35.9244C42.4868 35.306 42.9345 34.5365 43.1657 33.692C43.9937 30.562 43.9997 24.068 43.9997 24.068C43.9997 24.068 44.0397 17.538 43.1857 14.406ZM19.9917 30.01L20.0017 18.01L30.4157 24.02L19.9917 30.01Z" fill="#252525"/>
</svg>
