<svg width="48" height="48" viewBox="0 0 48 48" fill="none" xmlns="http://www.w3.org/2000/svg">
<path d="M24 15.375C22.2941 15.375 20.6266 15.8808 19.2082 16.8286C17.7898 17.7763 16.6843 19.1233 16.0315 20.6994C15.3787 22.2754 15.2079 24.0096 15.5407 25.6827C15.8735 27.3557 16.695 28.8926 17.9012 30.0988C19.1074 31.305 20.6443 32.1265 22.3173 32.4593C23.9904 32.7921 25.7246 32.6213 27.3006 31.9685C28.8767 31.3157 30.2237 30.2102 31.1714 28.7918C32.1192 27.3734 32.625 25.7059 32.625 24C32.625 21.7125 31.7163 19.5187 30.0988 17.9012C28.4813 16.2837 26.2875 15.375 24 15.375ZM24 30.375C22.7391 30.375 21.5066 30.0011 20.4582 29.3006C19.4099 28.6001 18.5928 27.6045 18.1103 26.4396C17.6278 25.2747 17.5015 23.9929 17.7475 22.7563C17.9935 21.5197 18.6006 20.3838 19.4922 19.4922C20.3838 18.6006 21.5197 17.9935 22.7563 17.7475C23.9929 17.5015 25.2747 17.6278 26.4396 18.1103C27.6045 18.5928 28.6001 19.4099 29.3006 20.4582C30.0011 21.5066 30.375 22.7391 30.375 24C30.3701 25.6892 29.6968 27.3079 28.5023 28.5023C27.3079 29.6968 25.6892 30.3701 24 30.375ZM32.25 5.625H15.75C13.0647 5.625 10.4893 6.69174 8.59054 8.59054C6.69174 10.4893 5.625 13.0647 5.625 15.75V32.25C5.625 34.9353 6.69174 37.5106 8.59054 39.4095C10.4893 41.3083 13.0647 42.375 15.75 42.375H32.25C34.9353 42.375 37.5106 41.3083 39.4095 39.4095C41.3083 37.5106 42.375 34.9353 42.375 32.25V15.75C42.375 13.0647 41.3083 10.4893 39.4095 8.59054C37.5106 6.69174 34.9353 5.625 32.25 5.625ZM40.125 32.25C40.125 34.3386 39.2953 36.3416 37.8185 37.8185C36.3416 39.2953 34.3386 40.125 32.25 40.125H15.75C13.6614 40.125 11.6584 39.2953 10.1815 37.8185C8.70468 36.3416 7.875 34.3386 7.875 32.25V15.75C7.875 13.6614 8.70468 11.6584 10.1815 10.1815C11.6584 8.70468 13.6614 7.875 15.75 7.875H32.25C34.3386 7.875 36.3416 8.70468 37.8185 10.1815C39.2953 11.6584 40.125 13.6614 40.125 15.75V32.25ZM35.625 14.25C35.625 14.6208 35.515 14.9834 35.309 15.2917C35.103 15.6 34.8101 15.8404 34.4675 15.9823C34.1249 16.1242 33.7479 16.1613 33.3842 16.089C33.0205 16.0166 32.6864 15.838 32.4242 15.5758C32.1619 15.3136 31.9834 14.9795 31.911 14.6158C31.8387 14.2521 31.8758 13.8751 32.0177 13.5325C32.1596 13.1899 32.4 12.897 32.7083 12.691C33.0166 12.485 33.3792 12.375 33.75 12.375C34.2473 12.375 34.7242 12.5725 35.0758 12.9242C35.4275 13.2758 35.625 13.7527 35.625 14.25Z" fill="#252525"/>
</svg>
